<?xml version="1.0" standalone="no"?>
<!DOCTYPE svg PUBLIC "-//W3C//DTD SVG 1.1//EN" "http://www.w3.org/Graphics/SVG/1.1/DTD/svg11.dtd" >
<svg xmlns="http://www.w3.org/2000/svg">
<metadata>
Created by FontPrep 20130207 at Mon Nov  9 14:57:01 2015
 By Joseph Van Drunen
Copyright 2008 Process Type Foundry. All rights reserved.
</metadata>
<defs>
<font id="6ff6391f4950f03ef4fc8ea576fdd989" horiz-adv-x='1024' >
  <font-face 
    font-family="Maple-Black"
    font-weight="900"
    font-stretch="normal"
    units-per-em="2048"
    panose-1="2 11 5 3 6 0 0 2 0 3"
    ascent="1536"
    descent="-512"
    x-height="954"
    cap-height="1364"
    bbox="-80 -606 2753.01 1978"
    underline-thickness="172"
    underline-position="-32"
    unicode-range="U+0020-FB04"
  />
<missing-glyph horiz-adv-x="1179" 
d="M213 100h694l-694 1080v-1080zM967 1262h-697l697 -1080v1080zM113 0v1364h954v-1364h-954z" />
    <glyph glyph-name="f_f" unicode="ff" horiz-adv-x="1646" 
d="M1470 1114q-71 0 -71 -74q0 -43 31 -86h172v-182h-152v-772h-532v772h-252v-772h-533v772h-123v182h123q-14 57 -14 113q0 149 105 233q104 84 288 84t309 -102l-86 -182q-25 14 -51 14q-70 0 -70 -74q0 -41 31 -86h273q-14 57 -15 113q-1 149 105 233t304 84t339 -133
l-111 -168q-35 31 -70 31z" />
    <glyph glyph-name="fi" unicode="fi" horiz-adv-x="1501" 
d="M1430 0h-533v954h533v-954zM1430 1022h-533v342h533v-342zM797 954v-182h-131v-772h-533v772h-123v182h123q-14 57 -14 113q0 149 105 233q106 84 294 84t303 -114l-90 -176q-27 20 -61 20q-52 0 -52 -54t27 -106h152z" />
    <glyph glyph-name="fl" unicode="fl" horiz-adv-x="1511" 
d="M1440 0h-533v1364h533v-1364zM684 1114q-68 0 -70 -74q0 -43 31 -86h172v-202h-151v-752h-533v752h-123v202h123q-14 57 -14 113q0 149 105 233t303 84t339 -133l-110 -168q-33 31 -72 31z" />
    <glyph glyph-name="f_f_i" unicode="ffi" horiz-adv-x="2265" 
d="M2193 1022h-532v342h532v-342zM2193 0h-532v954h532v-954zM666 772v-772h-533v772h-123v182h123q-14 57 -14 113q0 149 105 233q104 84 288 84t309 -102l-86 -182q-25 14 -51 14q-70 0 -70 -74q0 -41 31 -86h273q-14 57 -15 113q-1 149 105 233t294 84t304 -114l-90 -176
q-27 20 -62 20q-51 0 -51 -54t27 -106h151v-182h-131v-772h-532v772h-252z" />
    <glyph glyph-name="f_f_l" unicode="ffl" horiz-adv-x="2295" 
d="M1470 1114q-71 0 -71 -74q0 -43 31 -86h172v-182h-152v-772h-532v772h-252v-772h-533v772h-123v182h123q-14 57 -14 113q0 149 105 233q104 84 288 84t309 -102l-86 -182q-25 14 -51 14q-70 0 -70 -74q0 -41 31 -86h273q-14 57 -15 113q-1 149 105 233t304 84t339 -133
l-111 -168q-35 31 -70 31zM2224 0h-532v1364h532v-1364z" />
    <glyph glyph-name=".notdef" horiz-adv-x="1179" 
d="M213 100h694l-694 1080v-1080zM967 1262h-697l697 -1080v1080zM113 0v1364h954v-1364h-954z" />
    <glyph glyph-name=".null" horiz-adv-x="0" 
 />
    <glyph glyph-name="nonmarkingreturn" horiz-adv-x="681" 
 />
    <glyph glyph-name="space" unicode=" " horiz-adv-x="419" 
 />
    <glyph glyph-name="exclam" unicode="!" horiz-adv-x="696" 
d="M594 0h-492v391h492v-391zM82 1364h532v-487l-184 -402h-164l-184 402v487z" />
    <glyph glyph-name="quotedbl" unicode="&#x22;" horiz-adv-x="1013" 
d="M942 807h-362v557h362v-557zM434 807h-362v557h362v-557z" />
    <glyph glyph-name="numbersign" unicode="#" horiz-adv-x="1597" 
d="M672 823l-45 -274h299l45 274h-299zM539 0h-289l45 285h-244l45 264h242l45 274h-244l43 264h244l45 277h289l-45 -277h299l45 277h289l-45 -277h243l-43 -264h-243l-46 -274h246l-45 -264h-244l-45 -285h-288l45 285h-299z" />
    <glyph glyph-name="dollar" unicode="$" horiz-adv-x="1347" 
d="M524 -225v215q-229 31 -473 174l137 287q90 -63 230 -107t268 -45q94 0 94 63q0 35 -42 64t-183 68q-266 76 -360 177q-95 101 -95 270t130 279t395 121v207h221v-217q188 -31 424 -157l-135 -285q-260 141 -443 141q-98 0 -98 -61q0 -35 39 -61t155 -56
q262 -70 373 -164t111 -258t-112 -297q-112 -134 -415 -151v-207h-221z" />
    <glyph glyph-name="percent" unicode="%" horiz-adv-x="1947" 
d="M514 967q0 88 -12 124q-12 35 -49 35t-50 -35q-12 -36 -12 -124t12 -123q11 -35 49 -35t50 35t12 123zM854 967q0 -171 -105 -273t-295 -102t-297 101q-105 101 -105 273t108 275q109 102 293 102q185 0 293 -102t108 -274zM1556 354q0 88 -12 124t-49 36t-49 -36
t-12 -124t12 -123t49 -35t49 36q12 34 12 122zM1442 1323l-680 -1323h-252l680 1323h252zM1896 354q0 -172 -105 -273t-295 -101t-297 101q-105 101 -105 273t108 275q109 102 293 102t293 -102q108 -103 108 -275z" />
    <glyph glyph-name="ampersand" unicode="&#x26;" horiz-adv-x="2064" 
d="M1048 1081q0 -49 39 -108q14 -25 39 -62q90 57 90 165t-83 108q-39 0 -62 -27t-23 -76zM913 231q59 0 121 11q-128 170 -301 434q-104 -98 -104 -240q-1 -205 284 -205zM1460 1116q0 -96 -72 -173t-212 -105q205 -294 229 -330q23 55 22 106q0 88 -53 168l178 68
q82 -82 82 -220t-116 -288q96 -137 174 -137q53 -1 53 61t-66 103l129 143q117 -4 183 -64t65 -147q0 -125 -132 -225t-370 -101q-143 0 -230 22t-153 79q-223 -100 -519 -100t-458 106q-163 106 -163 288t155 295q156 112 449 111h47q-98 160 -98 300t130 227
q130 86 378 86q160 0 264 -66t104 -207z" />
    <glyph glyph-name="quotesingle" unicode="'" horiz-adv-x="505" 
d="M434 807h-362v557h362v-557z" />
    <glyph glyph-name="parenleft" unicode="(" horiz-adv-x="884" 
d="M92 612q0 604 602 953l201 -201q-311 -302 -311 -752t311 -751l-201 -201q-602 348 -602 952z" />
    <glyph glyph-name="parenright" unicode=")" horiz-adv-x="884" 
d="M301 612q0 450 -311 752l200 201q602 -349 602 -953t-602 -952l-200 201q311 301 311 751z" />
    <glyph glyph-name="asterisk" unicode="*" horiz-adv-x="999" 
d="M928 1036l-406 -82l402 -82l-144 -247l-270 307l133 -387h-287l133 387l-270 -307l-143 247l401 82l-405 82l143 248l274 -315l-133 395h287l-133 -395l274 315z" />
    <glyph glyph-name="plus" unicode="+" horiz-adv-x="1118" 
d="M735 0h-352v324h-301v307h301v323h352v-323h301v-307h-301v-324z" />
    <glyph glyph-name="comma" unicode="," horiz-adv-x="610" 
d="M539 432v-379q0 -195 -120 -298t-327 -103l-16 131q199 20 198 217h-202v432h467z" />
    <glyph glyph-name="hyphen" unicode="-" horiz-adv-x="937" 
d="M836 373h-734v346h734v-346z" />
    <glyph glyph-name="period" unicode="." horiz-adv-x="610" 
d="M539 0h-467v432h467v-432z" />
    <glyph glyph-name="slash" unicode="/" horiz-adv-x="1030" 
d="M999 1485l-620 -1821h-379l621 1821h378z" />
    <glyph glyph-name="zero" unicode="0" horiz-adv-x="1400" 
d="M823 662q-1 198 -29 276t-94 78t-94 -78t-28 -276t28 -277q28 -78 94 -78t95 78q28 78 28 277zM1356 662q0 -302 -163 -492t-493 -190t-492 190t-163 492q0 302 163 491q162 190 492 190t493 -190t163 -491z" />
    <glyph glyph-name="one" unicode="1" horiz-adv-x="837" 
d="M756 0h-533v977h-233v199h88q188 0 276 147h402v-1323z" />
    <glyph glyph-name="two" unicode="2" horiz-adv-x="1292" 
d="M607 1016q-97 0 -97 -166q0 -86 55 -158l-491 47q-27 94 -27 183q0 202 150 312q149 110 435 110t444 -102q158 -101 159 -310q0 -135 -89 -241q-48 -56 -91 -97q-90 -86 -422 -266h612v-328h-1204v190q279 207 510 398q152 123 151 303q0 53 -23 89q-24 36 -72 36z" />
    <glyph glyph-name="three" unicode="3" horiz-adv-x="1269" 
d="M1229 377q0 -182 -157 -290q-158 -107 -452 -107t-435 92q-140 92 -140 245q0 80 39 175l475 38q-25 -55 -24 -108q0 -115 94 -115q49 0 73 38t23 89q0 104 -56 144t-202 38h-29v140h29q111 0 167 48t56 122q0 38 -22 64t-60 26q-88 0 -88 -103q0 -39 15 -75l-422 32
q-18 68 -19 125q0 166 142 257t396 91t402 -86t148 -224t-92 -218t-302 -121q20 2 60 2q178 0 280 -84t101 -235z" />
    <glyph glyph-name="four" unicode="4" horiz-adv-x="1398" 
d="M641 539v428l-313 -428h313zM1378 250h-204v-250h-533v250h-616v309l583 764h566v-784h204v-289z" />
    <glyph glyph-name="five" unicode="5" 
d="M1286 465q0 -219 -147 -352t-467 -133q-612 0 -613 296q0 39 13 89l493 36v-20q0 -115 90 -115q49 0 74 43t25 101q0 127 -95 127q-70 0 -92 -86l-477 63l76 809h1034v-338h-635l-35 -430q33 150 142 238q110 88 268 88t252 -117t94 -299z" />
    <glyph glyph-name="six" unicode="6" horiz-adv-x="1370" 
d="M707 297q45 0 69 42t25 98q0 56 -24 95q-23 39 -69 39t-71 -43t-25 -99t25 -94t70 -38zM1333 463q0 -203 -170 -343t-467 -140q-647 0 -647 661q0 324 164 513t520 189q489 0 490 -327q0 -51 -9 -94l-423 -56q4 29 4 43q0 119 -78 119q-69 0 -93 -97t-26 -347
q31 104 128 170t222 65q195 0 290 -103t95 -253z" />
    <glyph glyph-name="seven" unicode="7" horiz-adv-x="1165" 
d="M1165 1323v-217q-338 -338 -360 -1106h-533q8 474 234 756q123 154 301 219h-776v348h1134z" />
    <glyph glyph-name="eight" unicode="8" horiz-adv-x="1359" 
d="M786 438q0 66 -25 114q-26 48 -81 48t-81 -48t-26 -114q1 -168 107 -168t106 168zM680 786q84 0 84 150t-84 151q-84 -1 -84 -151t84 -150zM1319 371q0 -195 -184 -293q-183 -98 -455 -98t-456 97q-183 97 -183 294q0 145 109 230t276 108q-156 20 -241 102t-85 201
q0 154 152 242t428 89q276 0 428 -89t152 -242q0 -117 -86 -194t-240 -109q164 -6 274 -97t111 -241z" />
    <glyph glyph-name="nine" unicode="9" horiz-adv-x="1366" 
d="M573 886q0 -56 24 -95t70 -39q47 0 71 43t24 100t-25 94t-69 37t-70 -42q-25 -42 -25 -98zM41 881q0 201 169 331t468 131q350 0 499 -154q148 -155 148 -470q0 -739 -643 -739q-284 0 -440 86t-156 243q0 39 10 84l537 66q-18 -45 -19 -80q0 -84 64 -84t81 95t17 349
q-31 -104 -128 -170t-222 -65q-209 0 -297 110t-88 267z" />
    <glyph glyph-name="colon" unicode=":" horiz-adv-x="630" 
d="M549 0h-467v371h467v-371zM549 492h-467v370h467v-370z" />
    <glyph glyph-name="semicolon" unicode=";" horiz-adv-x="630" 
d="M549 371v-318q0 -195 -120 -298t-327 -103l-16 131q199 20 199 217h-203v371h467zM549 492h-467v370h467v-370z" />
    <glyph glyph-name="less" unicode="&#x3c;" horiz-adv-x="985" 
d="M903 639l-463 -162l463 -162v-335l-842 380v234l842 381v-336z" />
    <glyph glyph-name="equal" unicode="=" horiz-adv-x="999" 
d="M918 109h-836v266h836v-266zM918 535h-836v266h836v-266z" />
    <glyph glyph-name="greater" unicode="&#x3e;" horiz-adv-x="985" 
d="M545 477l-463 162v336l842 -381v-234l-842 -380v335z" />
    <glyph glyph-name="question" unicode="?" horiz-adv-x="1277" 
d="M911 0h-491v391h491v-391zM654 1389q276 0 430 -119t153 -320q0 -200 -140 -324t-489 -167l-82 241q180 63 181 228q1 40 -19 68t-63 28q-88 0 -88 -100q0 -41 20 -88l-432 -70q-74 117 -74 233q0 174 164 282q163 108 439 108z" />
    <glyph glyph-name="at" unicode="@" horiz-adv-x="1646" 
d="M851 815q-29 0 -49 -58q-20 -59 -20 -117t30 -58t49 61t19 117t-29 55zM721 1040q106 0 163 -72q56 -73 56 -190v-12l90 215h248l-68 -387q-4 -20 -4 -25q0 -45 49 -45t86 82t37 189q0 199 -140 307t-383 108t-410 -143t-167 -394t152 -389t427 -138t542 128l63 -151
q-254 -147 -622 -147t-573 196q-206 197 -206 506q1 309 221 510t588 201q313 0 514 -161t201 -425q0 -197 -90 -319t-287 -122q-274 0 -274 244l2 35q-63 -279 -305 -279q-233 0 -234 283q0 175 83 285t241 110z" />
    <glyph glyph-name="A" unicode="A" horiz-adv-x="1677" 
d="M778 954l-151 -473h303zM1161 1364l506 -1364h-584l-61 190h-490l-59 -190h-453l504 1364h637z" />
    <glyph glyph-name="B" unicode="B" horiz-adv-x="1468" 
d="M915 472q0 54 -37 86q-38 32 -110 32h-133v-242h143q70 0 104 35q33 35 33 89zM748 793q70 1 97 37t27 80t-28 75q-29 31 -86 31h-123v-223h113zM1448 354q0 -158 -122 -256t-343 -98h-901v1364h874q231 0 340 -89t109 -220q0 -317 -459 -361h27q219 0 347 -91t128 -249z
" />
    <glyph glyph-name="C" unicode="C" horiz-adv-x="1503" 
d="M824 995q-102 0 -154 -88q-51 -88 -52 -225q0 -313 222 -313q184 0 219 227l403 -102q-12 -215 -191 -367t-476 -152q-379 0 -567 193q-187 193 -187 504t201 514t571 203q281 -1 444 -137t177 -408l-406 -72q0 102 -51 162t-153 61z" />
    <glyph glyph-name="D" unicode="D" horiz-adv-x="1572" 
d="M991 682q0 135 -59 228t-187 94h-110v-644h110q127 0 187 94t59 228zM1544 682q0 -301 -194 -492q-195 -190 -543 -190h-725v1364h725q348 0 543 -190q194 -191 194 -492z" />
    <glyph glyph-name="E" unicode="E" horiz-adv-x="1347" 
d="M1276 0h-1194v1364h1182v-373h-629v-147h493v-307h-493v-164h641v-373z" />
    <glyph glyph-name="F" unicode="F" horiz-adv-x="1302" 
d="M635 0h-553v1364h1190v-373h-637v-162h502v-307h-502v-522z" />
    <glyph glyph-name="G" unicode="G" horiz-adv-x="1595" 
d="M887 487v213h637v-700h-293l-47 211q-41 -94 -159 -165t-265 -71q-346 -1 -534 191t-189 514q0 322 217 515q217 194 602 194q272 1 446 -131t183 -386l-416 -86q-27 209 -201 209q-111 0 -171 -86q-60 -85 -60 -231t54 -245t169 -99q147 0 180 153h-153z" />
    <glyph glyph-name="H" unicode="H" horiz-adv-x="1630" 
d="M1548 0h-553v487h-360v-487h-553v1364h553v-483h360v483h553v-1364z" />
    <glyph glyph-name="I" unicode="I" horiz-adv-x="737" 
d="M645 0h-553v1364h553v-1364z" />
    <glyph glyph-name="J" unicode="J" horiz-adv-x="1327" 
d="M1266 1364v-780q0 -102 -14 -186t-59 -165q-138 -258 -573 -258q-294 0 -436 113q-141 112 -141 298t164 355l323 -129q-43 -78 -43 -141q0 -100 105 -100q121 0 121 153v840h553z" />
    <glyph glyph-name="K" unicode="K" horiz-adv-x="1615" 
d="M635 0h-553v1364h553v-487l348 487h602l-405 -555l419 -809h-651l-200 428l-113 -158v-270z" />
    <glyph glyph-name="L" unicode="L" horiz-adv-x="1259" 
d="M1214 0h-1132v1364h553v-995h579v-369z" />
    <glyph glyph-name="M" unicode="M" horiz-adv-x="2043" 
d="M1962 0h-553v846l-266 -846h-359l-272 846v-846h-430v1364h672l227 -653l207 653h774v-1364z" />
    <glyph glyph-name="N" unicode="N" horiz-adv-x="1650" 
d="M573 0h-491v1364h534l461 -616v616h492v-1364h-535l-461 614v-614z" />
    <glyph glyph-name="O" unicode="O" horiz-adv-x="1654" 
d="M1044 682q0 137 -51 225t-166 88t-165 -88t-52 -225q0 -137 52 -225t166 -88t165 88t51 225zM1618 682q0 -297 -209 -502t-582 -205t-581 205t-209 502q0 297 209 502q210 205 582 205t581 -205t209 -502z" />
    <glyph glyph-name="P" unicode="P" horiz-adv-x="1511" 
d="M793 717q79 0 117 39t38 95t-43 91t-112 35h-158v-260h158zM868 1364q319 0 476 -125t157 -328q1 -203 -151 -319t-465 -117h-250v-475h-553v1364h786z" />
    <glyph glyph-name="Q" unicode="Q" horiz-adv-x="1654" 
d="M1044 682q0 137 -51 225t-166 88t-165 -88t-52 -225q0 -137 52 -225t166 -88t165 88t51 225zM993 -356q-248 0 -335 80t-87 237v45q-256 66 -395 251t-139 425q0 297 209 502q210 205 582 205t581 -205t209 -502q0 -240 -140 -426t-397 -252v-47q0 -53 30 -76
q31 -23 131 -23t233 58l34 -172q-195 -100 -516 -100z" />
    <glyph glyph-name="R" unicode="R" horiz-adv-x="1636" 
d="M821 750q78 0 123 32t45 83q0 52 -38 82t-109 30h-207v-227h186zM1542 995q0 -143 -101 -246t-343 -131q20 2 57 3q139 0 207 -66t108 -219q23 -88 36 -129q36 -114 120 -207h-614q-72 84 -115 241t-61 218q-25 66 -82 65h-119v-524h-553v1364h827q319 0 476 -100
t157 -269z" />
    <glyph glyph-name="S" unicode="S" horiz-adv-x="1470" 
d="M1425 444q0 -219 -168 -344t-503 -125q-193 -1 -381 53t-332 152l149 295q281 -158 578 -158q104 0 104 58q0 35 -48 54t-216 54q-288 57 -406 173t-118 313t164 309t504 111q178 -1 352 -47t301 -121l-125 -301q-285 133 -543 133q-100 0 -100 -49q0 -34 42 -54t193 -51
q295 -61 424 -167t129 -288z" />
    <glyph glyph-name="T" unicode="T" horiz-adv-x="1437" 
d="M1407 954h-412v-954h-553v954h-411v410h1376v-410z" />
    <glyph glyph-name="U" unicode="U" horiz-adv-x="1523" 
d="M1452 549q0 -310 -203 -455q-166 -119 -461 -119q-453 0 -623 248q-93 136 -93 326v815h553v-821q-1 -84 35 -129t124 -45t124 45t36 129v821h508v-815z" />
    <glyph glyph-name="V" unicode="V" horiz-adv-x="1595" 
d="M1589 1364l-473 -1364h-586l-520 1364h608l248 -760l248 760h475z" />
    <glyph glyph-name="W" unicode="W" horiz-adv-x="2236" 
d="M1405 1364l178 -637l186 637h457l-385 -1364h-510l-201 723l-225 -723h-493l-402 1364h563l168 -637l177 637h487z" />
    <glyph glyph-name="X" unicode="X" horiz-adv-x="1576" 
d="M518 0h-500l469 664l-477 700h611l213 -336l221 336h512l-504 -662l514 -702h-625l-207 311z" />
    <glyph glyph-name="Y" unicode="Y" horiz-adv-x="1519" 
d="M1034 0h-553v481l-471 883h580l201 -446l206 446h512l-475 -885v-479z" />
    <glyph glyph-name="Z" unicode="Z" horiz-adv-x="1456" 
d="M1391 0h-1319v250l600 770h-578v344h1272v-268l-571 -748h596v-348z" />
    <glyph glyph-name="bracketleft" unicode="[" horiz-adv-x="802" 
d="M741 -315h-649v1818h649v-205h-157v-1409h157v-204z" />
    <glyph glyph-name="backslash" unicode="\" horiz-adv-x="1030" 
d="M651 -336l-620 1821h379l620 -1821h-379z" />
    <glyph glyph-name="bracketright" unicode="]" horiz-adv-x="802" 
d="M711 -315h-650v204h158v1409h-158v205h650v-1818z" />
    <glyph glyph-name="asciicircum" unicode="^" horiz-adv-x="1036" 
d="M324 1364h389l303 -539h-379l-119 258l-119 -258h-379z" />
    <glyph glyph-name="underscore" unicode="_" horiz-adv-x="1075" 
d="M1077 -291h-1079v172h1079v-172z" />
    <glyph glyph-name="grave" unicode="`" horiz-adv-x="651" 
d="M260 1055l-209 309h428l101 -309h-320z" />
    <glyph glyph-name="a" unicode="a" horiz-adv-x="1312" 
d="M655 276v62q-117 -14 -116 -80q0 -53 57 -53q59 -1 59 71zM326 -20q-131 0 -205 70t-74 192q0 252 430 252q74 0 176 -11v183q0 55 -43 55t-43 -55q0 -27 15 -64l-461 -98q-43 82 -43 158q0 141 146 227t418 86t408 -94t136 -299v-297q0 -63 43 -64q36 1 59 15v-173
q-41 -41 -127 -63t-175 -20q-89 0 -166 49t-107 135q-51 -94 -153 -139t-234 -45z" />
    <glyph glyph-name="b" unicode="b" horiz-adv-x="1314" 
d="M752 476q0 108 -16 154t-59 46q-42 0 -57 -46q-16 -46 -16 -154t16 -154t56 -46t58 46t18 154zM889 975q199 1 297 -139t98 -358t-115 -358t-331 -140q-279 0 -357 256l-104 -236h-305v1364h532v-594q86 205 285 205z" />
    <glyph glyph-name="c" unicode="c" horiz-adv-x="1136" 
d="M686 590q0 88 -53 88q-72 0 -72 -201t72 -201q59 0 59 132v10l395 -39q10 -35 11 -80q0 -139 -126 -229t-356 -90q-588 0 -587 497q0 238 146 368t441 130q215 0 342 -93t127 -255q0 -25 -4 -58l-397 -26q2 20 2 47z" />
    <glyph glyph-name="d" unicode="d" horiz-adv-x="1314" 
d="M641 676q-43 0 -61 -45t-17 -159t19 -155t60 -41t55 43t13 159t-12 157q-14 41 -57 41zM31 477q0 219 98 359t291 139q100 0 176 -57t115 -148v594h532v-1364h-309l-100 236q-46 -115 -142 -186q-96 -70 -242 -70t-244 76q-99 76 -137 182q-38 108 -38 239z" />
    <glyph glyph-name="e" unicode="e" horiz-adv-x="1179" 
d="M694 610q0 111 -60 111t-65 -164h121q4 41 4 53zM651 256q55 0 56 61q0 16 -7 35l420 -39q8 -33 8 -67q0 -266 -532 -266q-559 0 -559 497q0 217 146 357t433 141q205 0 355 -89q76 -46 120 -130q69 -132 29 -334h-551q7 -102 27 -134t55 -32z" />
    <glyph glyph-name="f" unicode="f" horiz-adv-x="862" 
d="M684 1114q-68 0 -70 -74q0 -45 31 -86h172v-202h-151v-752h-533v752h-123v202h123q-14 49 -14 113q0 149 105 233t303 84t339 -133l-110 -168q-33 31 -72 31z" />
    <glyph glyph-name="g" unicode="g" horiz-adv-x="1210" 
d="M678 652q0 114 -70 114t-70 -114t68 -113q72 -1 72 113zM682 -37h-178q-80 0 -80 -45q0 -51 179 -51t179 48t-100 48zM606 973q137 0 246 -29q8 16 8 35q0 51 -80 51l80 172q25 4 47 4q76 0 121 -37t45 -110q0 -98 -98 -162q164 -87 164 -239q-1 -152 -141 -239t-392 -87
q-131 0 -225 20q-16 -12 -16 -35q0 -35 59 -34h276q248 0 392 -80t143 -243q0 -163 -160 -240t-495 -76q-610 0 -611 176q1 68 101 106t219 43q-260 29 -260 203q0 80 77 131q78 51 187 76q-215 84 -215 272q0 147 139 235t389 87z" />
    <glyph glyph-name="h" unicode="h" 
d="M1264 0h-533v518q0 70 -55 70q-33 0 -52 -34t-20 -89v-465h-532v1364h532v-684q29 123 114 209t200 86q346 0 346 -483v-492z" />
    <glyph glyph-name="i" unicode="i" horiz-adv-x="675" 
d="M604 0h-532v954h532v-954zM604 1022h-532v342h532v-342z" />
    <glyph glyph-name="j" unicode="j" horiz-adv-x="675" 
d="M604 1022h-532v342h532v-342zM72 954h532v-938q0 -188 -93 -280t-302 -92q-154 0 -289 61l6 201q23 -6 67 -6t61 24t18 72v958z" />
    <glyph glyph-name="k" unicode="k" horiz-adv-x="1343" 
d="M604 0h-532v1364h532v-717l217 307h496l-307 -395l327 -559h-544l-129 283l-60 -88v-195z" />
    <glyph glyph-name="l" unicode="l" horiz-adv-x="675" 
d="M604 0h-532v1364h532v-1364z" />
    <glyph glyph-name="m" unicode="m" horiz-adv-x="1986" 
d="M1262 0h-533v518q0 70 -53 70q-72 0 -72 -142v-446h-532v954h407l80 -274q41 133 131 214t225 81q272 0 330 -297q96 297 328 297q346 0 346 -483v-492h-533v518q0 70 -53 70q-33 0 -52 -39t-19 -103v-446z" />
    <glyph glyph-name="n" unicode="n" 
d="M1264 0h-533v518q0 70 -55 70q-72 0 -72 -142v-446h-532v954h407l80 -274q41 133 132 214t227 81q346 0 346 -483v-492z" />
    <glyph glyph-name="o" unicode="o" horiz-adv-x="1265" 
d="M709 477q-1 123 -19 162t-57 39t-57 -39t-19 -162q0 -123 18 -162q17 -39 57 -39t58 39t19 162zM1241 477q0 -229 -166 -363t-442 -134t-443 134q-166 134 -165 363q0 229 165 364q166 134 442 134q276 -1 443 -135q166 -134 166 -363z" />
    <glyph glyph-name="p" unicode="p" horiz-adv-x="1314" 
d="M752 482q0 114 -18 155t-58 41q-41 0 -56 -49t-16 -152q0 -199 70 -198q42 1 60 45t18 158zM1284 477q0 -219 -98 -358t-291 -139q-100 0 -176 57t-115 147v-520h-532v1290h309l100 -235q45 115 141 185t242 71q146 0 245 -76q99 -75 137 -183t38 -239z" />
    <glyph glyph-name="q" unicode="q" horiz-adv-x="1314" 
d="M563 477q0 -199 72 -198q43 0 59 46q16 45 16 153t-16 154t-57 46t-57 -45t-17 -156zM31 476q0 218 114 359q115 140 332 140q279 0 357 -256l104 235h305v-1290h-532v520q-86 -204 -285 -204t-297 139t-98 357z" />
    <glyph glyph-name="r" unicode="r" horiz-adv-x="1030" 
d="M719 461q0 82 -41 82t-57 -66t-17 -227v-250h-532v954h407l92 -325v33q1 145 61 229t164 84t160 -77q55 -77 56 -191q0 -193 -123 -340l-178 18q8 49 8 76z" />
    <glyph glyph-name="s" unicode="s" horiz-adv-x="1052" 
d="M1024 299q0 -135 -120 -227t-355 -92q-285 0 -516 149l108 236q57 -43 147 -78t156 -35q68 0 68 33q0 27 -49 39q-221 51 -304 125t-83 214t125 226t373 86t444 -121l-94 -233q-60 35 -146 59t-138 22q-52 0 -52 -24q0 -16 23 -27q24 -10 118 -35q159 -42 227 -112
t68 -205z" />
    <glyph glyph-name="t" unicode="t" horiz-adv-x="868" 
d="M117 352v400h-113v202h113v275l532 35v-310h176v-202h-176v-420q-1 -49 17 -73q18 -23 66 -23t93 14l6 -201q-119 -69 -323 -69t-298 92q-93 92 -93 280z" />
    <glyph glyph-name="u" unicode="u" 
d="M68 954h532v-518q0 -70 55 -69q72 0 72 141v446h533v-954h-408l-80 274q-41 -133 -132 -214t-226 -80q-346 0 -346 483v491z" />
    <glyph glyph-name="v" unicode="v" horiz-adv-x="1218" 
d="M885 0h-547l-348 954h491l158 -542l158 542h438z" />
    <glyph glyph-name="w" unicode="w" horiz-adv-x="1814" 
d="M791 0h-484l-317 954h493l95 -524l135 524h426l125 -524l84 524h483l-318 -954h-462l-131 410z" />
    <glyph glyph-name="x" unicode="x" horiz-adv-x="1224" 
d="M502 954l110 -272l111 272h481l-266 -473l276 -481h-491l-111 252l-110 -252h-492l277 481l-267 473h482z" />
    <glyph glyph-name="y" unicode="y" horiz-adv-x="1200" 
d="M420 -356q-130 0 -260 53l8 199q41 -10 88 -11q102 0 127 82l-393 987h491l148 -555l153 555h439l-324 -934q-37 -106 -70 -168t-84 -114t-123 -74q-70 -20 -200 -20z" />
    <glyph glyph-name="z" unicode="z" horiz-adv-x="1118" 
d="M63 668v286h992v-286l-316 -381h326v-287h-1004v203l422 465h-420z" />
    <glyph glyph-name="braceleft" unicode="{" horiz-adv-x="847" 
d="M674 233v-278q0 -57 19 -84t73 -27h41v-159h-264q-174 0 -268 88q-93 88 -93 254v436q0 61 -61 61h-49v140h49q61 0 61 61v436q0 166 93 254t268 88h264v-160h-41q-53 0 -73 -26q-19 -27 -19 -84v-279q0 -156 -56 -246t-217 -114q161 -25 217 -115t56 -246z" />
    <glyph glyph-name="bar" unicode="|" horiz-adv-x="475" 
d="M362 -336h-249v1923h249v-1923z" />
    <glyph glyph-name="braceright" unicode="}" horiz-adv-x="847" 
d="M174 -45v278q0 156 56 246t216 115q-160 25 -216 115t-56 245v279q0 57 -19 84t-73 26h-41v160h264q174 0 267 -88t94 -254v-436q0 -61 61 -61h49v-140h-49q-61 0 -61 -61v-436q0 -166 -94 -254t-267 -88h-264v159h41q53 0 73 27q19 27 19 84z" />
    <glyph glyph-name="asciitilde" unicode="~" horiz-adv-x="913" 
d="M666 260q-56 0 -96 16t-127 70t-124 53q-53 0 -53 -59q0 -41 23 -74h-158q-86 90 -86 202t57 182q56 69 160 69t209 -76l51 -39t25 -16q8 -4 19 -10t28 -5q47 1 47 51t-25 89h158q94 -98 94 -236q0 -93 -52 -155t-150 -62z" />
    <glyph glyph-name="uni00A0" unicode="&#xa0;" horiz-adv-x="419" 
 />
    <glyph glyph-name="exclamdown" unicode="&#xa1;" horiz-adv-x="696" 
d="M102 954h492v-391h-492v391zM614 -336h-532v332l184 483h164l184 -483v-332z" />
    <glyph glyph-name="cent" unicode="&#xa2;" horiz-adv-x="1273" 
d="M575 -41v211q-243 27 -363 154t-120 337q0 209 123 337t360 155v211h205v-209q180 -16 284 -108t105 -238q0 -14 -4 -55l-397 -27q2 12 2 39q0 96 -59 96q-86 0 -86 -200t86 -201q66 0 65 133v8l395 -39q10 -45 11 -80q0 -127 -104 -215t-298 -102v-207h-205z" />
    <glyph glyph-name="sterling" unicode="&#xa3;" horiz-adv-x="1636" 
d="M348 156q106 0 150 92q-100 53 -150 53t-79 -19q-28 -19 -27 -53q0 -73 106 -73zM968 1057q-96 1 -96 -123q0 -64 84 -207q6 -10 15 -27h198v-145h-159q2 -12 2 -37q0 -172 -119 -291q129 -66 221 -65q47 0 76 22t29 58q0 59 -66 98l168 229h25q118 0 186 -62t67 -169
q1 -152 -115 -255t-340 -103t-405 110q-170 -111 -420 -110q-139 0 -224 64t-85 172q0 106 80 176t238 71q100 0 198 -39q-6 78 -37 131h-247v145h151q-86 137 -86 248q0 201 165 298t466 97q233 0 398 -93t165 -259q0 -81 -62 -155t-159 -109l-252 162q29 35 29 77
q-1 91 -89 91z" />
    <glyph glyph-name="currency" unicode="&#xa4;" horiz-adv-x="1183" 
d="M592 467q46 0 64 42t18 169t-20 172t-63 45q-45 0 -63 -43t-18 -172t18 -171t64 -42zM1069 680q0 -176 -106 -299l112 -111l-143 -141l-135 135q-88 -37 -205 -37t-205 37l-135 -135l-143 141l110 111q-104 121 -104 300t104 298l-110 113l143 141l135 -137q88 37 203 37
t205 -37l137 137l143 -141l-112 -113q106 -123 106 -299z" />
    <glyph glyph-name="yen" unicode="&#xa5;" horiz-adv-x="1447" 
d="M1305 535h-281l-33 -56v-43h314v-211h-314v-225h-536v225h-314v211h314v45l-29 54h-285v210h168l-315 578h579l181 -504l188 504h512l-315 -578h166v-210z" />
    <glyph glyph-name="brokenbar" unicode="&#xa6;" horiz-adv-x="475" 
d="M362 1587v-833h-249v833h249zM362 -336h-249v834h249v-834z" />
    <glyph glyph-name="section" unicode="&#xa7;" horiz-adv-x="1347" 
d="M514 551q0 -33 49 -55t143 -42t148 -32q20 26 20 56t-22 48t-80 35l-227 60q-31 -37 -31 -70zM1260 584q0 -74 -41 -144t-119 -108q176 -96 176 -281q0 -159 -114 -273q-62 -62 -187 -98q-272 -79 -623 12q-182 48 -301 130l123 241q256 -123 510 -122q111 0 111 49
q1 27 -51 47t-199 49q-250 51 -354 141q-103 90 -103 234q0 94 70 160t164 79q-115 56 -165 132t-51 186q0 371 580 371q154 0 306 -40t263 -106l-108 -262q-248 115 -473 115q-86 0 -86 -41q0 -29 35 -45t170 -47q259 -59 363 -140t104 -239z" />
    <glyph glyph-name="dieresis" unicode="&#xa8;" horiz-adv-x="962" 
d="M428 1061h-356v303h356v-303zM891 1061h-365v303h365v-303z" />
    <glyph glyph-name="copyright" unicode="&#xa9;" horiz-adv-x="1519" 
d="M797 836q-109 0 -109 -153t113 -153q88 0 104 111l185 -49q-16 -116 -96 -184t-242 -68q-160 0 -243 102t-83 238t89 242q89 104 261 104q135 0 220 -72t89 -188l-194 -39q0 49 -26 79t-68 30zM1305 682q0 244 -159 400t-386 157q-227 0 -386 -157q-159 -156 -159 -400
t159 -400t386 -157q227 1 386 157t159 400zM1468 682q0 -295 -200 -501t-508 -206q-307 0 -508 206t-201 501t201 501t508 206q308 0 508 -206t200 -501z" />
    <glyph glyph-name="ordfeminine" unicode="&#xaa;" horiz-adv-x="727" 
d="M367 1034v29q-59 -8 -60 -41q0 -27 27 -27q33 0 33 39zM534 881q-104 0 -137 94q-51 -94 -194 -94q-66 0 -106 37t-40 96q0 129 224 129q29 0 86 -4v92q0 29 -23 29q-22 0 -22 -24t8 -38l-236 -49q-23 41 -22 80q0 74 74 117q75 43 217 43q142 -1 209 -49t67 -152v-152
q0 -33 23 -32q14 0 28 8v-88q-52 -43 -156 -43z" />
    <glyph glyph-name="guillemotleft" unicode="&#xab;" horiz-adv-x="1556" 
d="M1454 602l-326 -125l326 -125v-309l-655 297v274l655 297v-309zM727 602l-326 -125l326 -125v-309l-655 297v274l655 297v-309z" />
    <glyph glyph-name="logicalnot" unicode="&#xac;" horiz-adv-x="1134" 
d="M1036 123h-352v323h-602v308h954v-631z" />
    <glyph glyph-name="registered" unicode="&#xae;" horiz-adv-x="833" 
d="M459 1069q0 23 -31 23h-41v-45h39q33 -1 33 22zM569 1096q0 -61 -90 -76h13q49 0 63 -54t27 -69h-117q-13 14 -25 51t-13 45t-15 8h-25v-104h-111v272h166q127 1 127 -73zM162 1030q0 -106 72 -181t184 -75q114 0 184 75t70 181t-71 181t-183 75t-184 -75t-72 -181z
M51 1030q-1 146 99 252t268 106t266 -106t98 -252t-98 -252t-266 -106t-268 106t-99 252z" />
    <glyph glyph-name="macron" unicode="&#xaf;" horiz-adv-x="935" 
d="M864 1071h-792v262h792v-262z" />
    <glyph glyph-name="degree" unicode="&#xb0;" horiz-adv-x="626" 
d="M406 1148q0 46 -27 74t-66 28t-65 -28t-27 -74q0 -46 27 -74q28 -28 66 -28t65 28t27 74zM565 1149q0 -102 -75 -171t-178 -69t-177 69t-74 171t74 171t177 69t178 -69t75 -171z" />
    <glyph glyph-name="plusminus" unicode="&#xb1;" horiz-adv-x="1118" 
d="M82 0v270h301v176h-301v287h301v283h352v-283h301v-287h-301v-176h301v-270h-954z" />
    <glyph glyph-name="twosuperior" unicode="&#xb2;" horiz-adv-x="634" 
d="M563 369h-491v432h491v-432z" />
    <glyph glyph-name="threesuperior" unicode="&#xb3;" horiz-adv-x="634" 
d="M563 369h-491v432h491v-432z" />
    <glyph glyph-name="acute" unicode="&#xb4;" horiz-adv-x="651" 
d="M600 1364l-209 -309h-319l100 309h428z" />
    <glyph glyph-name="mu" unicode="&#xb5;" 
d="M68 -336v1290h532v-518q0 -70 55 -69q72 0 72 141v446h533v-954h-408l-80 274q-53 -166 -172 -243v-367h-532z" />
    <glyph glyph-name="paragraph" unicode="&#xb6;" horiz-adv-x="1486" 
d="M594 859q0 -95 66 -153t149 -59v426q-90 0 -153 -59q-62 -60 -62 -155zM1163 0v1073h-123v-1073h-231v393q-336 0 -552 122t-216 343q0 129 64 228q119 181 422 248q136 30 290 30h578v-1364h-232z" />
    <glyph glyph-name="periodcentered" unicode="&#xb7;" horiz-adv-x="634" 
d="M563 369h-491v432h491v-432z" />
    <glyph glyph-name="cedilla" unicode="&#xb8;" horiz-adv-x="659" 
d="M598 -201q0 -156 -258 -155q-168 0 -258 55l27 80q53 -23 109 -23t56 38t-53 38t-76 -4l84 178h115l-63 -137q59 57 143 57t129 -34t45 -93z" />
    <glyph glyph-name="onesuperior" unicode="&#xb9;" horiz-adv-x="634" 
d="M563 369h-491v432h491v-432z" />
    <glyph glyph-name="ordmasculine" unicode="&#xba;" horiz-adv-x="681" 
d="M381 1135q0 61 -10 81t-31 21q-41 0 -41 -102t41 -103q20 0 31 21q10 21 10 82zM651 1135q0 -117 -85 -186t-226 -69t-225 70q-84 68 -84 185t84 185t225 69q141 -1 226 -69t85 -185z" />
    <glyph glyph-name="guillemotright" unicode="&#xbb;" horiz-adv-x="1556" 
d="M428 477l-326 125v309l656 -297v-274l-656 -297v309zM1155 477l-326 125v309l656 -297v-274l-656 -297v309z" />
    <glyph glyph-name="onequarter" unicode="&#xbc;" horiz-adv-x="634" 
d="M563 369h-491v432h491v-432z" />
    <glyph glyph-name="onehalf" unicode="&#xbd;" horiz-adv-x="634" 
d="M563 369h-491v432h491v-432z" />
    <glyph glyph-name="threequarters" unicode="&#xbe;" horiz-adv-x="634" 
d="M563 369h-491v432h491v-432z" />
    <glyph glyph-name="questiondown" unicode="&#xbf;" horiz-adv-x="1275" 
d="M387 954h492v-391h-492v391zM626 -356q-278 0 -432 109t-153 297q0 188 164 307q164 118 465 139l82 -242q-90 -35 -136 -73t-45 -87q0 -108 82 -106q82 0 82 90q0 27 -10 63l432 70q66 -100 66 -219q0 -162 -159 -255q-160 -93 -438 -93z" />
    <glyph glyph-name="Agrave" unicode="&#xc0;" horiz-adv-x="1677" 
d="M643 1454l-174 254h432l88 -254h-346zM778 954l-151 -473h303zM1161 1364l506 -1364h-584l-61 190h-490l-59 -190h-453l504 1364h637z" />
    <glyph glyph-name="Aacute" unicode="&#xc1;" horiz-adv-x="1677" 
d="M1190 1708l-201 -254h-346l84 254h463zM778 954l-151 -473h303zM1161 1364l506 -1364h-584l-61 190h-490l-59 -190h-453l504 1364h637z" />
    <glyph glyph-name="Acircumflex" unicode="&#xc2;" horiz-adv-x="1677" 
d="M1096 1694l151 -240h-350l-53 135l-51 -135h-351l148 240h506zM778 954l-151 -473h303zM1161 1364l506 -1364h-584l-61 190h-490l-59 -190h-453l504 1364h637z" />
    <glyph glyph-name="Atilde" unicode="&#xc3;" horiz-adv-x="1677" 
d="M1200 1610q0 -72 -50 -121t-122 -49t-196 43t-158 43t-35 -23q0 -12 12 -28l-90 -56q-109 78 -108 180q0 66 50 111t130 45q81 0 193 -44t146 -44t34 33q-1 21 -19 37l113 53q100 -66 100 -180zM778 954l-151 -473h303zM1161 1364l506 -1364h-584l-61 190h-490l-59 -190
h-453l504 1364h637z" />
    <glyph glyph-name="Adieresis" unicode="&#xc4;" horiz-adv-x="1677" 
d="M776 1464h-385v265h385v-265zM1272 1464h-393v265h393v-265zM778 954l-151 -473h303zM1161 1364l506 -1364h-584l-61 190h-490l-59 -190h-453l504 1364h637z" />
    <glyph glyph-name="Aring" unicode="&#xc5;" horiz-adv-x="1677" 
d="M901 1516q0 72 -63 71q-64 1 -64 -71t64 -72t63 72zM778 954l-151 -473h303zM1116 1519q0 -91 -84 -155h129l506 -1364h-584l-61 190h-490l-59 -190h-453l504 1364h119q-84 62 -84 154t83 151t196 59q114 0 196 -58q82 -60 82 -151z" />
    <glyph glyph-name="AE" unicode="&#xc6;" horiz-adv-x="2187" 
d="M778 954l-151 -473h303zM2103 1364v-367h-807l66 -176h606v-266h-508l70 -188h586v-367h-1033l-61 190h-490l-59 -190h-453l504 1364h1579z" />
    <glyph glyph-name="Ccedilla" unicode="&#xc7;" horiz-adv-x="1503" 
d="M1108 -201q0 -156 -258 -155q-168 0 -258 55l26 80q54 -23 110 -23t56 38t-53 38t-76 -4l70 149q-344 19 -514 209t-170 494t201 506q201 203 571 203q281 -1 443 -137t178 -408l-406 -72q0 102 -51 162t-153 61q-102 0 -154 -88q-51 -88 -52 -225q0 -313 222 -313
q184 0 219 227l403 -102q-12 -208 -178 -356t-444 -161l-49 -108q59 57 143 57t129 -34t45 -93z" />
    <glyph glyph-name="Egrave" unicode="&#xc8;" horiz-adv-x="1347" 
d="M516 1454l-174 254h432l88 -254h-346zM1276 0h-1194v1364h1182v-373h-629v-147h493v-307h-493v-164h641v-373z" />
    <glyph glyph-name="Eacute" unicode="&#xc9;" horiz-adv-x="1347" 
d="M1024 1708l-201 -254h-346l84 254h463zM1276 0h-1194v1364h1182v-373h-629v-147h493v-307h-493v-164h641v-373z" />
    <glyph glyph-name="Ecircumflex" unicode="&#xca;" horiz-adv-x="1347" 
d="M932 1694l151 -240h-350l-53 135l-51 -135h-350l147 240h506zM1276 0h-1194v1364h1182v-373h-629v-147h493v-307h-493v-164h641v-373z" />
    <glyph glyph-name="Edieresis" unicode="&#xcb;" horiz-adv-x="1347" 
d="M612 1464h-385v265h385v-265zM1108 1464h-393v265h393v-265zM1276 0h-1194v1364h1182v-373h-629v-147h493v-307h-493v-164h641v-373z" />
    <glyph glyph-name="Igrave" unicode="&#xcc;" horiz-adv-x="737" 
d="M205 1454l-174 254h432l88 -254h-346zM645 0h-553v1364h553v-1364z" />
    <glyph glyph-name="Iacute" unicode="&#xcd;" horiz-adv-x="737" 
d="M739 1708l-200 -254h-346l83 254h463zM645 0h-553v1364h553v-1364z" />
    <glyph glyph-name="Icircumflex" unicode="&#xce;" horiz-adv-x="737" 
d="M621 1694l151 -240h-350l-53 135l-52 -135h-350l148 240h506zM645 0h-553v1364h553v-1364z" />
    <glyph glyph-name="Idieresis" unicode="&#xcf;" horiz-adv-x="737" 
d="M313 1464h-385v265h385v-265zM809 1464h-393v265h393v-265zM645 0h-553v1364h553v-1364z" />
    <glyph glyph-name="Eth" unicode="&#xd0;" horiz-adv-x="1660" 
d="M1079 682q0 135 -59 228t-186 94h-111v-228h178v-186h-178v-230h111q127 0 186 94t59 228zM61 590v186h109v588h725q348 0 543 -190q194 -190 194 -492t-194 -492q-195 -190 -543 -190h-725v590h-109z" />
    <glyph glyph-name="Ntilde" unicode="&#xd1;" horiz-adv-x="1650" 
d="M1190 1610q0 -72 -50 -121t-123 -49t-196 43t-158 43t-34 -23q0 -12 12 -28l-90 -56q-109 78 -109 180q0 66 50 111t132 45t192 -44t144 -44t35 33q0 21 -18 37l113 53q100 -66 100 -180zM573 0h-491v1364h534l461 -616v616h492v-1364h-535l-461 614v-614z" />
    <glyph glyph-name="Ograve" unicode="&#xd2;" horiz-adv-x="1654" 
d="M643 1454l-174 254h432l88 -254h-346zM1044 682q0 137 -51 225t-166 88t-165 -88t-52 -225q0 -137 52 -225t166 -88t165 88t51 225zM1618 682q0 -297 -209 -502t-582 -205t-581 205t-209 502q0 297 209 502q210 205 582 205t581 -205t209 -502z" />
    <glyph glyph-name="Oacute" unicode="&#xd3;" horiz-adv-x="1654" 
d="M1188 1708l-201 -254h-346l84 254h463zM1044 682q0 137 -51 225t-166 88t-165 -88t-52 -225q0 -137 52 -225t166 -88t165 88t51 225zM1618 682q0 -297 -209 -502t-582 -205t-581 205t-209 502q0 297 209 502q210 205 582 205t581 -205t209 -502z" />
    <glyph glyph-name="Ocircumflex" unicode="&#xd4;" horiz-adv-x="1654" 
d="M1079 1694l152 -240h-350l-54 135l-51 -135h-350l147 240h506zM1044 682q0 137 -51 225t-166 88t-165 -88t-52 -225q0 -137 52 -225t166 -88t165 88t51 225zM1618 682q0 -297 -209 -502t-582 -205t-581 205t-209 502q0 297 209 502q210 205 582 205t581 -205t209 -502z
" />
    <glyph glyph-name="Otilde" unicode="&#xd5;" horiz-adv-x="1654" 
d="M1009 1440q-73 0 -196 43t-158 43t-34 -23q0 -12 12 -28l-90 -56q-109 78 -109 180q0 66 50 111t132 45t192 -44t144 -44t35 33q0 21 -18 37l112 53q100 -66 101 -180q0 -72 -50 -121t-123 -49zM1044 682q0 137 -51 225t-166 88t-165 -88t-52 -225q0 -137 52 -225
t166 -88t165 88t51 225zM1618 682q0 -297 -209 -502t-582 -205t-581 205t-209 502q0 297 209 502q210 205 582 205t581 -205t209 -502z" />
    <glyph glyph-name="Odieresis" unicode="&#xd6;" horiz-adv-x="1654" 
d="M772 1464h-385v265h385v-265zM1268 1464h-394v265h394v-265zM1044 682q0 137 -51 225t-166 88t-165 -88t-52 -225q0 -137 52 -225t166 -88t165 88t51 225zM1618 682q0 -297 -209 -502t-582 -205t-581 205t-209 502q0 297 209 502q210 205 582 205t581 -205t209 -502z" />
    <glyph glyph-name="multiply" unicode="&#xd7;" horiz-adv-x="1015" 
d="M279 8l-218 217l230 230l-230 229l218 217l229 -229l229 229l217 -217l-229 -229l229 -230l-217 -217l-229 230z" />
    <glyph glyph-name="Oslash" unicode="&#xd8;" horiz-adv-x="1654" 
d="M1044 682q0 51 -10 109l-375 -330q53 -92 168 -92t166 88t51 225zM610 682q0 -53 11 -111l374 332q-57 92 -170 92t-164 -88t-51 -225zM37 692q0 286 209 492q209 205 581 205q322 0 533 -164l186 164l72 -82l-176 -156q176 -193 176 -479t-209 -492q-209 -205 -582 -205
q-324 0 -532 162l-184 -162l-74 82l176 156q-176 193 -176 479z" />
    <glyph glyph-name="Ugrave" unicode="&#xd9;" horiz-adv-x="1523" 
d="M608 1454l-174 254h432l88 -254h-346zM1452 549q0 -310 -203 -455q-166 -119 -461 -119q-453 0 -623 248q-93 136 -93 326v815h553v-821q-1 -84 35 -129t124 -45t124 45t36 129v821h508v-815z" />
    <glyph glyph-name="Uacute" unicode="&#xda;" horiz-adv-x="1523" 
d="M1141 1708l-201 -254h-346l84 254h463zM1452 549q0 -310 -203 -455q-166 -119 -461 -119q-453 0 -623 248q-93 136 -93 326v815h553v-821q-1 -84 35 -129t124 -45t124 45t36 129v821h508v-815z" />
    <glyph glyph-name="Ucircumflex" unicode="&#xdb;" horiz-adv-x="1523" 
d="M1040 1694l152 -240h-350l-54 135l-51 -135h-350l148 240h505zM1452 549q0 -310 -203 -455q-166 -119 -461 -119q-453 0 -623 248q-93 136 -93 326v815h553v-821q-1 -84 35 -129t124 -45t124 45t36 129v821h508v-815z" />
    <glyph glyph-name="Udieresis" unicode="&#xdc;" horiz-adv-x="1523" 
d="M731 1464h-385v265h385v-265zM1227 1464h-393v265h393v-265zM1452 549q0 -310 -203 -455q-166 -119 -461 -119q-453 0 -623 248q-93 136 -93 326v815h553v-821q-1 -84 35 -129t124 -45t124 45t36 129v821h508v-815z" />
    <glyph glyph-name="Yacute" unicode="&#xdd;" horiz-adv-x="1519" 
d="M1153 1708l-201 -254h-346l84 254h463zM1034 0h-553v481l-471 883h580l201 -446l206 446h512l-475 -885v-479z" />
    <glyph glyph-name="Thorn" unicode="&#xde;" horiz-adv-x="1511" 
d="M793 492q79 0 117 39t38 95t-43 91t-112 35h-158v-260h158zM868 1139q319 0 476 -125t157 -328q1 -204 -151 -320t-465 -116h-250v-250h-553v1364h553v-225h233z" />
    <glyph glyph-name="germandbls" unicode="&#xdf;" horiz-adv-x="1570" 
d="M61 868q-1 516 649 516t650 -360q0 -80 -68 -180q-6 -8 -19 -28t-29 -45q-16 -24 -15 -62q1 -39 25 -64t111 -61q185 -75 185 -260q0 -150 -120 -247t-360 -97q-239 0 -400 94l71 231q129 -53 213 -53t84 31q0 20 -49 41q-158 66 -221 125t-63 176q-1 78 81 191
q82 112 82 172q0 126 -137 126t-137 -158v-956h-533v868z" />
    <glyph glyph-name="agrave" unicode="&#xe0;" horiz-adv-x="1312" 
d="M479 1055l-209 309h428l101 -309h-320zM655 276v62q-117 -14 -116 -80q0 -53 57 -53q59 -1 59 71zM326 -20q-131 0 -205 70t-74 192q0 252 430 252q74 0 176 -11v183q0 55 -43 55t-43 -55q0 -27 15 -64l-461 -98q-43 82 -43 158q0 141 146 227t418 86t408 -94t136 -299
v-297q0 -63 43 -64q36 1 59 15v-173q-41 -41 -127 -63t-175 -20q-89 0 -166 49t-107 135q-51 -94 -153 -139t-234 -45z" />
    <glyph glyph-name="aacute" unicode="&#xe1;" horiz-adv-x="1312" 
d="M995 1364l-209 -309h-319l100 309h428zM655 276v62q-117 -14 -116 -80q0 -53 57 -53q59 -1 59 71zM326 -20q-131 0 -205 70t-74 192q0 252 430 252q74 0 176 -11v183q0 55 -43 55t-43 -55q0 -27 15 -64l-461 -98q-43 82 -43 158q0 141 146 227t418 86t408 -94t136 -299
v-297q0 -63 43 -64q36 1 59 15v-173q-41 -41 -127 -63t-175 -20q-89 0 -166 49t-107 135q-51 -94 -153 -139t-234 -45z" />
    <glyph glyph-name="acircumflex" unicode="&#xe2;" horiz-adv-x="1312" 
d="M881 1364l151 -322h-330l-53 185l-51 -185h-330l148 322h465zM655 276v62q-117 -14 -116 -80q0 -53 57 -53q59 -1 59 71zM326 -20q-131 0 -205 70t-74 192q0 252 430 252q74 0 176 -11v183q0 55 -43 55t-43 -55q0 -27 15 -64l-461 -98q-43 82 -43 158q0 141 146 227
t418 86t408 -94t136 -299v-297q0 -63 43 -64q36 1 59 15v-173q-41 -41 -127 -63t-175 -20q-89 0 -166 49t-107 135q-51 -94 -153 -139t-234 -45z" />
    <glyph glyph-name="atilde" unicode="&#xe3;" horiz-adv-x="1312" 
d="M995 1231q0 -76 -49 -128t-141 -52q-53 0 -161 43t-146 43t-39 -37q0 -23 20 -47l-110 -39q-100 70 -101 184q0 80 50 131t132 51t183 -44q100 -44 134 -44t34 33q-1 23 -21 41l117 49q98 -63 98 -184zM655 276v62q-117 -14 -116 -80q0 -53 57 -53q59 -1 59 71zM326 -20
q-131 0 -205 70t-74 192q0 252 430 252q74 0 176 -11v183q0 55 -43 55t-43 -55q0 -27 15 -64l-461 -98q-43 82 -43 158q0 141 146 227t418 86t408 -94t136 -299v-297q0 -63 43 -64q36 1 59 15v-173q-41 -41 -127 -63t-175 -20q-89 0 -166 49t-107 135q-51 -94 -153 -139
t-234 -45z" />
    <glyph glyph-name="adieresis" unicode="&#xe4;" horiz-adv-x="1312" 
d="M592 1061h-356v303h356v-303zM1055 1061h-365v303h365v-303zM655 276v62q-117 -14 -116 -80q0 -53 57 -53q59 -1 59 71zM326 -20q-131 0 -205 70t-74 192q0 252 430 252q74 0 176 -11v183q0 55 -43 55t-43 -55q0 -27 15 -64l-461 -98q-43 82 -43 158q0 141 146 227
t418 86t408 -94t136 -299v-297q0 -63 43 -64q36 1 59 15v-173q-41 -41 -127 -63t-175 -20q-89 0 -166 49t-107 135q-51 -94 -153 -139t-234 -45z" />
    <glyph glyph-name="aring" unicode="&#xe5;" horiz-adv-x="1312" 
d="M698 1225q0 29 -17 47t-44 18t-44 -18t-17 -47t16 -47q18 -18 45 -18t44 18t17 47zM905 1225q0 -89 -79 -143q-80 -54 -190 -54t-189 53t-79 143t79 144q79 53 190 53t189 -53t79 -143zM655 276v62q-117 -14 -116 -80q0 -53 57 -53q59 -1 59 71zM326 -20q-131 0 -205 70
t-74 192q0 252 430 252q74 0 176 -11v183q0 55 -43 55t-43 -55q0 -27 15 -64l-461 -98q-43 82 -43 158q0 141 146 227t418 86t408 -94t136 -299v-297q0 -63 43 -64q36 1 59 15v-173q-41 -41 -127 -63t-175 -20q-89 0 -166 49t-107 135q-51 -94 -153 -139t-234 -45z" />
    <glyph glyph-name="ae" unicode="&#xe6;" horiz-adv-x="1794" 
d="M539 258q0 -54 60 -54t83 72q-14 33 -16 64q-127 -16 -127 -82zM1251 721q-66 0 -65 -154v-10h121q4 41 4 53q-1 111 -60 111zM1268 256q55 0 55 61q0 18 -6 35l420 -39q8 -33 8 -71q0 -262 -533 -262q-147 0 -268 40t-186 117q-100 -92 -202 -125q-102 -32 -231 -32
q-130 0 -204 70t-74 192q0 246 420 245q80 0 186 -10q-1 59 11 105t12 73q0 66 -53 66t-54 -59q0 -27 13 -60l-461 -98q-41 94 -41 176q0 135 120 215t369 80q213 0 305 -135q104 135 359 135q204 0 354 -89q76 -46 120 -128t44 -173t-14 -163h-551q6 -102 26 -134t56 -32z
" />
    <glyph glyph-name="ccedilla" unicode="&#xe7;" horiz-adv-x="1136" 
d="M915 -203q0 -156 -258 -155q-168 0 -258 55l27 80q53 -23 109 -23t57 39q0 37 -54 37t-75 -4l74 156q-508 33 -508 495q0 238 146 368t441 130q215 0 342 -93t127 -255q0 -29 -6 -58l-395 -26q2 16 2 47q0 88 -53 88q-72 0 -72 -201t72 -201q59 0 59 132v10l395 -39
q10 -41 11 -80q0 -135 -117 -223t-332 -96l-51 -113q60 57 144 57t128 -34t45 -93z" />
    <glyph glyph-name="egrave" unicode="&#xe8;" horiz-adv-x="1179" 
d="M449 1055l-209 309h428l100 -309h-319zM694 610q0 111 -60 111t-65 -164h121q4 41 4 53zM651 256q55 0 56 61q0 16 -7 35l420 -39q8 -33 8 -67q0 -266 -532 -266q-559 0 -559 497q0 217 146 357t433 141q205 0 355 -89q76 -46 120 -130q69 -132 29 -334h-551
q7 -102 27 -134t55 -32z" />
    <glyph glyph-name="eacute" unicode="&#xe9;" horiz-adv-x="1179" 
d="M958 1364l-208 -309h-320l100 309h428zM694 610q0 111 -60 111t-65 -164h121q4 41 4 53zM651 256q55 0 56 61q0 16 -7 35l420 -39q8 -33 8 -67q0 -266 -532 -266q-559 0 -559 497q0 217 146 357t433 141q205 0 355 -89q76 -46 120 -130q69 -132 29 -334h-551
q7 -102 27 -134t55 -32z" />
    <glyph glyph-name="ecircumflex" unicode="&#xea;" horiz-adv-x="1179" 
d="M856 1364l152 -322h-330l-53 185l-52 -185h-329l147 322h465zM694 610q0 111 -60 111t-65 -164h121q4 41 4 53zM651 256q55 0 56 61q0 16 -7 35l420 -39q8 -33 8 -67q0 -266 -532 -266q-559 0 -559 497q0 217 146 357t433 141q205 0 355 -89q76 -46 120 -130
q69 -132 29 -334h-551q7 -102 27 -134t55 -32z" />
    <glyph glyph-name="edieresis" unicode="&#xeb;" horiz-adv-x="1179" 
d="M555 1061h-356v303h356v-303zM1018 1061h-365v303h365v-303zM694 610q0 111 -60 111t-65 -164h121q4 41 4 53zM651 256q55 0 56 61q0 16 -7 35l420 -39q8 -33 8 -67q0 -266 -532 -266q-559 0 -559 497q0 217 146 357t433 141q205 0 355 -89q76 -46 120 -130
q69 -132 29 -334h-551q7 -102 27 -134t55 -32z" />
    <glyph glyph-name="igrave" unicode="&#xec;" horiz-adv-x="675" 
d="M180 1055l-209 309h428l101 -309h-320zM604 0h-532v954h532v-954z" />
    <glyph glyph-name="iacute" unicode="&#xed;" horiz-adv-x="675" 
d="M709 1364l-209 -309h-320l101 309h428zM604 0h-532v954h532v-954z" />
    <glyph glyph-name="icircumflex" unicode="&#xee;" horiz-adv-x="675" 
d="M569 1364l152 -322h-330l-53 185l-51 -185h-330l147 322h465zM604 0h-532v954h532v-954z" />
    <glyph glyph-name="idieresis" unicode="&#xef;" horiz-adv-x="675" 
d="M285 1061h-357v303h357v-303zM748 1061h-365v303h365v-303zM604 0h-532v954h532v-954z" />
    <glyph glyph-name="eth" unicode="&#xf0;" horiz-adv-x="1323" 
d="M647 532q-84 0 -84 -138t82 -138q43 0 65 39t21 100q0 137 -84 137zM1270 575q0 -276 -158 -436t-489 -159q-266 0 -419 124t-153 314q1 158 101 276t288 117q106 0 186 -71t109 -193q-6 242 -131 442l-235 -106l-58 116l211 97q-162 182 -413 268h610q109 -41 184 -94
l189 86l57 -119l-131 -59q252 -246 252 -603z" />
    <glyph glyph-name="ntilde" unicode="&#xf1;" 
d="M1022 1231q0 -76 -49 -128t-142 -52q-53 0 -161 43t-146 43q-39 0 -39 -37q0 -23 21 -47l-111 -39q-100 70 -100 184q0 80 50 131t131 51t183 -44t129 -44q39 0 39 33q0 23 -20 41l117 49q98 -63 98 -184zM1264 0h-533v518q0 70 -55 70q-72 0 -72 -142v-446h-532v954h407
l80 -274q41 133 132 214t227 81q346 0 346 -483v-492z" />
    <glyph glyph-name="ograve" unicode="&#xf2;" horiz-adv-x="1265" 
d="M463 1055l-209 309h428l100 -309h-319zM709 477q-1 123 -19 162t-57 39t-57 -39t-19 -162q0 -123 18 -162q17 -39 57 -39t58 39t19 162zM1241 477q0 -229 -166 -363t-442 -134t-443 134q-166 134 -165 363q0 229 165 364q166 134 442 134q276 -1 443 -135
q166 -134 166 -363z" />
    <glyph glyph-name="oacute" unicode="&#xf3;" horiz-adv-x="1265" 
d="M1008 1364l-209 -309h-320l101 309h428zM709 477q-1 123 -19 162t-57 39t-57 -39t-19 -162q0 -123 18 -162q17 -39 57 -39t58 39t19 162zM1241 477q0 -229 -166 -363t-442 -134t-443 134q-166 134 -165 363q0 229 165 364q166 134 442 134q276 -1 443 -135
q166 -134 166 -363z" />
    <glyph glyph-name="ocircumflex" unicode="&#xf4;" horiz-adv-x="1265" 
d="M872 1364l152 -322h-330l-53 185l-51 -185h-330l148 322h464zM709 477q-1 123 -19 162t-57 39t-57 -39t-19 -162q0 -123 18 -162q17 -39 57 -39t58 39t19 162zM1241 477q0 -229 -166 -363t-442 -134t-443 134q-166 134 -165 363q0 229 165 364q166 134 442 134
q276 -1 443 -135q166 -134 166 -363z" />
    <glyph glyph-name="otilde" unicode="&#xf5;" horiz-adv-x="1265" 
d="M985 1231q0 -76 -49 -128t-141 -52q-53 0 -161 43t-147 43t-38 -37q0 -23 20 -47l-111 -39q-100 70 -100 184q0 80 50 131t132 51t183 -44q102 -44 129 -44q39 0 39 33q-1 23 -21 41l117 49q98 -63 98 -184zM709 477q-1 123 -19 162t-57 39t-57 -39t-19 -162
q0 -123 18 -162q17 -39 57 -39t58 39t19 162zM1241 477q0 -229 -166 -363t-442 -134t-443 134q-166 134 -165 363q0 229 165 364q166 134 442 134q276 -1 443 -135q166 -134 166 -363z" />
    <glyph glyph-name="odieresis" unicode="&#xf6;" horiz-adv-x="1265" 
d="M588 1061h-357v303h357v-303zM1051 1061h-365v303h365v-303zM709 477q-1 123 -19 162t-57 39t-57 -39t-19 -162q0 -123 18 -162q17 -39 57 -39t58 39t19 162zM1241 477q0 -229 -166 -363t-442 -134t-443 134q-166 134 -165 363q0 229 165 364q166 134 442 134
q276 -1 443 -135q166 -134 166 -363z" />
    <glyph glyph-name="divide" unicode="&#xf7;" horiz-adv-x="1118" 
d="M764 674h-410v280h410v-280zM764 0h-410v281h410v-281zM1036 352h-954v250h954v-250z" />
    <glyph glyph-name="oslash" unicode="&#xf8;" horiz-adv-x="1265" 
d="M557 477v-12l145 119q-6 57 -23 75q-17 19 -51 19t-52 -39t-19 -162zM709 477v12l-148 -116q5 -57 23 -77t53 -20t53 39t19 162zM1241 465q0 -217 -166 -351t-434 -134t-426 114l-143 -114l-47 59l131 104q-131 131 -131 347t165 351q166 134 432 134t427 -115l143 115
l47 -60l-131 -104q133 -129 133 -346z" />
    <glyph glyph-name="ugrave" unicode="&#xf9;" 
d="M530 1055l-208 309h428l100 -309h-320zM68 954h532v-518q0 -70 55 -69q72 0 72 141v446h533v-954h-408l-80 274q-41 -133 -132 -214t-226 -80q-346 0 -346 483v491z" />
    <glyph glyph-name="uacute" unicode="&#xfa;" 
d="M1032 1364l-209 -309h-319l100 309h428zM68 954h532v-518q0 -70 55 -69q72 0 72 141v446h533v-954h-408l-80 274q-41 -133 -132 -214t-226 -80q-346 0 -346 483v491z" />
    <glyph glyph-name="ucircumflex" unicode="&#xfb;" 
d="M903 1364l152 -322h-330l-53 185l-51 -185h-330l147 322h465zM68 954h532v-518q0 -70 55 -69q72 0 72 141v446h533v-954h-408l-80 274q-41 -133 -132 -214t-226 -80q-346 0 -346 483v491z" />
    <glyph glyph-name="udieresis" unicode="&#xfc;" 
d="M616 1061h-356v303h356v-303zM1079 1061h-364v303h364v-303zM68 954h532v-518q0 -70 55 -69q72 0 72 141v446h533v-954h-408l-80 274q-41 -133 -132 -214t-226 -80q-346 0 -346 483v491z" />
    <glyph glyph-name="yacute" unicode="&#xfd;" horiz-adv-x="1200" 
d="M985 1364l-209 -309h-319l100 309h428zM420 -356q-130 0 -260 53l8 199q41 -10 88 -11q102 0 127 82l-393 987h491l148 -555l153 555h439l-324 -934q-37 -106 -70 -168t-84 -114t-123 -74q-70 -20 -200 -20z" />
    <glyph glyph-name="thorn" unicode="&#xfe;" horiz-adv-x="1314" 
d="M752 476q0 108 -16 154t-59 46q-42 0 -57 -46q-16 -46 -16 -154t16 -154t56 -46t58 46t18 154zM72 -336v1700h532v-594q86 205 285 205t297 -139q98 -140 98 -360t-96 -358t-291 -138q-106 0 -182 59t-111 149v-524h-532z" />
    <glyph glyph-name="ydieresis" unicode="&#xff;" horiz-adv-x="1200" 
d="M584 1061h-357v303h357v-303zM1047 1061h-365v303h365v-303zM420 -356q-130 0 -260 53l8 199q41 -10 88 -11q102 0 127 82l-393 987h491l148 -555l153 555h439l-324 -934q-37 -106 -70 -168t-84 -114t-123 -74q-70 -20 -200 -20z" />
    <glyph glyph-name="Amacron" unicode="&#x100;" horiz-adv-x="1677" 
d="M1251 1464h-833v236h833v-236zM778 954l-151 -473h303zM1161 1364l506 -1364h-584l-61 190h-490l-59 -190h-453l504 1364h637z" />
    <glyph glyph-name="amacron" unicode="&#x101;" horiz-adv-x="1312" 
d="M1044 1071h-792v262h792v-262zM655 276v62q-117 -14 -116 -80q0 -53 57 -53q59 -1 59 71zM326 -20q-131 0 -205 70t-74 192q0 252 430 252q74 0 176 -11v183q0 55 -43 55t-43 -55q0 -27 15 -64l-461 -98q-43 82 -43 158q0 141 146 227t418 86t408 -94t136 -299v-297
q0 -63 43 -64q36 1 59 15v-173q-41 -41 -127 -63t-175 -20q-89 0 -166 49t-107 135q-51 -94 -153 -139t-234 -45z" />
    <glyph glyph-name="Abreve" unicode="&#x102;" horiz-adv-x="1677" 
d="M1268 1614q0 -76 -122 -116t-302 -40t-302 40t-122 116q0 37 29 78h346q-16 -25 -17 -50q0 -51 66 -51t65 51q0 25 -16 50h346q29 -41 29 -78zM778 954l-151 -473h303zM1161 1364l506 -1364h-584l-61 190h-490l-59 -190h-453l504 1364h637z" />
    <glyph glyph-name="abreve" unicode="&#x103;" horiz-adv-x="1312" 
d="M1026 1239q0 -90 -97 -148q-97 -59 -281 -59t-282 58q-97 58 -98 149q0 61 45 125h265q-43 -79 3 -117q25 -20 67 -20t66 20q46 38 3 117h264q45 -63 45 -125zM655 276v62q-117 -14 -116 -80q0 -53 57 -53q59 -1 59 71zM326 -20q-131 0 -205 70t-74 192q0 252 430 252
q74 0 176 -11v183q0 55 -43 55t-43 -55q0 -27 15 -64l-461 -98q-43 82 -43 158q0 141 146 227t418 86t408 -94t136 -299v-297q0 -63 43 -64q36 1 59 15v-173q-41 -41 -127 -63t-175 -20q-89 0 -166 49t-107 135q-51 -94 -153 -139t-234 -45z" />
    <glyph glyph-name="Aogonek" unicode="&#x104;" horiz-adv-x="1677" 
d="M778 954l-151 -473h303zM1223 -356q-248 0 -248 147q0 63 82 113q147 90 352 96h-326l-61 190h-490l-59 -190h-453l504 1364h637l506 -1364h-227q-147 -82 -148 -180q0 -63 70 -64q30 0 63 8l15 -79q-92 -41 -217 -41z" />
    <glyph glyph-name="aogonek" unicode="&#x105;" horiz-adv-x="1312" 
d="M655 276v62q-117 -14 -116 -80q0 -53 57 -53q59 -1 59 71zM963 -356q-248 0 -248 141q0 86 134 135q85 32 232 66q-43 -6 -80 -6q-104 0 -181 49t-107 135q-51 -94 -153 -139t-234 -45q-131 0 -205 70t-74 192q0 252 430 252q74 0 176 -11v183q0 55 -43 55t-43 -55
q0 -27 15 -64l-461 -98q-43 82 -43 158q0 141 146 227t418 86t408 -94t136 -299v-297q0 -63 40 -63t62 14v-170q-18 -18 -51 -37q-205 -127 -205 -209q0 -63 70 -64q30 0 63 8l15 -79q-92 -41 -217 -41z" />
    <glyph glyph-name="Cacute" unicode="&#x106;" horiz-adv-x="1503" 
d="M1171 1708l-200 -254h-346l84 254h462zM824 995q-102 0 -154 -88q-51 -88 -52 -225q0 -313 222 -313q184 0 219 227l403 -102q-12 -215 -191 -367t-476 -152q-379 0 -567 193q-187 193 -187 504t201 514t571 203q281 -1 444 -137t177 -408l-406 -72q0 102 -51 162
t-153 61z" />
    <glyph glyph-name="cacute" unicode="&#x107;" horiz-adv-x="1136" 
d="M973 1364l-209 -309h-320l101 309h428zM686 590q0 88 -53 88q-72 0 -72 -201t72 -201q59 0 59 132v10l395 -39q10 -35 11 -80q0 -139 -126 -229t-356 -90q-588 0 -587 497q0 238 146 368t441 130q215 0 342 -93t127 -255q0 -25 -4 -58l-397 -26q2 20 2 47z" />
    <glyph glyph-name="Ccircumflex" unicode="&#x108;" horiz-adv-x="1503" 
d="M1063 1694l151 -240h-350l-53 135l-51 -135h-350l147 240h506zM824 995q-102 0 -154 -88q-51 -88 -52 -225q0 -313 222 -313q184 0 219 227l403 -102q-12 -215 -191 -367t-476 -152q-379 0 -567 193q-187 193 -187 504t201 514t571 203q281 -1 444 -137t177 -408
l-406 -72q0 102 -51 162t-153 61z" />
    <glyph glyph-name="ccircumflex" unicode="&#x109;" horiz-adv-x="1136" 
d="M842 1364l151 -322h-329l-54 185l-51 -185h-330l148 322h465zM686 590q0 88 -53 88q-72 0 -72 -201t72 -201q59 0 59 132v10l395 -39q10 -35 11 -80q0 -139 -126 -229t-356 -90q-588 0 -587 497q0 238 146 368t441 130q215 0 342 -93t127 -255q0 -25 -4 -58l-397 -26
q2 20 2 47z" />
    <glyph glyph-name="Cdotaccent" unicode="&#x10a;" horiz-adv-x="1503" 
d="M1079 1468h-532v322h532v-322zM824 995q-102 0 -154 -88q-51 -88 -52 -225q0 -313 222 -313q184 0 219 227l403 -102q-12 -215 -191 -367t-476 -152q-379 0 -567 193q-187 193 -187 504t201 514t571 203q281 -1 444 -137t177 -408l-406 -72q0 102 -51 162t-153 61z" />
    <glyph glyph-name="cdotaccent" unicode="&#x10b;" horiz-adv-x="1136" 
d="M877 1042h-533v322h533v-322zM686 590q0 88 -53 88q-72 0 -72 -201t72 -201q59 0 59 132v10l395 -39q10 -35 11 -80q0 -139 -126 -229t-356 -90q-588 0 -587 497q0 238 146 368t441 130q215 0 342 -93t127 -255q0 -25 -4 -58l-397 -26q2 20 2 47z" />
    <glyph glyph-name="Ccaron" unicode="&#x10c;" horiz-adv-x="1503" 
d="M1219 1694l-152 -240h-506l-147 240h350l51 -135l53 135h351zM824 995q-102 0 -154 -88q-51 -88 -52 -225q0 -313 222 -313q184 0 219 227l403 -102q-12 -215 -191 -367t-476 -152q-379 0 -567 193q-187 193 -187 504t201 514t571 203q281 -1 444 -137t177 -408l-406 -72
q0 102 -51 162t-153 61z" />
    <glyph glyph-name="ccaron" unicode="&#x10d;" horiz-adv-x="1136" 
d="M997 1364l-151 -322h-465l-148 322h330l51 -184l54 184h329zM686 590q0 88 -53 88q-72 0 -72 -201t72 -201q59 0 59 132v10l395 -39q10 -35 11 -80q0 -139 -126 -229t-356 -90q-588 0 -587 497q0 238 146 368t441 130q215 0 342 -93t127 -255q0 -25 -4 -58l-397 -26
q2 20 2 47z" />
    <glyph glyph-name="Dcaron" unicode="&#x10e;" horiz-adv-x="1572" 
d="M1110 1694l-152 -240h-505l-148 240h350l52 -135l53 135h350zM991 682q0 135 -59 228t-187 94h-110v-644h110q127 0 187 94t59 228zM1544 682q0 -301 -194 -492q-195 -190 -543 -190h-725v1364h725q348 0 543 -190q194 -191 194 -492z" />
    <glyph glyph-name="dcaron" unicode="&#x10f;" horiz-adv-x="1779" 
d="M1763 1364v-301q0 -166 -83 -247t-273 -97l-21 137q168 18 168 117h-180v391h389zM641 676q-43 0 -61 -45t-17 -159t19 -155t60 -41t55 43t13 159t-12 157q-14 41 -57 41zM31 477q0 219 98 359t291 139q100 0 176 -57t115 -148v594h532v-1364h-309l-100 236
q-46 -115 -142 -186q-96 -70 -242 -70t-244 76q-99 76 -137 182q-38 108 -38 239z" />
    <glyph glyph-name="Dcroat" unicode="&#x110;" horiz-adv-x="1660" 
d="M1079 682q0 135 -59 228t-186 94h-111v-228h178v-186h-178v-230h111q127 0 186 94t59 228zM61 590v186h109v588h725q348 0 543 -190q194 -190 194 -492t-194 -492q-195 -190 -543 -190h-725v590h-109z" />
    <glyph glyph-name="dcroat" unicode="&#x111;" horiz-adv-x="1333" 
d="M641 676q-43 0 -61 -45t-17 -159t19 -155t60 -41t55 43t13 159t-12 157q-14 41 -57 41zM510 1014v196h201v154h532v-154h111v-196h-111v-1014h-309l-100 236q-46 -115 -142 -186q-96 -70 -242 -70t-244 76q-99 76 -137 183q-38 108 -38 238q0 219 98 359t291 139
q100 0 176 -57t115 -148v244h-201z" />
    <glyph glyph-name="Emacron" unicode="&#x112;" horiz-adv-x="1347" 
d="M1108 1464h-834v236h834v-236zM1276 0h-1194v1364h1182v-373h-629v-147h493v-307h-493v-164h641v-373z" />
    <glyph glyph-name="emacron" unicode="&#x113;" horiz-adv-x="1179" 
d="M1008 1071h-793v262h793v-262zM694 610q0 111 -60 111t-65 -164h121q4 41 4 53zM651 256q55 0 56 61q0 16 -7 35l420 -39q8 -33 8 -67q0 -266 -532 -266q-559 0 -559 497q0 217 146 357t433 141q205 0 355 -89q76 -46 120 -130q69 -132 29 -334h-551q7 -102 27 -134
t55 -32z" />
    <glyph glyph-name="Ebreve" unicode="&#x114;" horiz-adv-x="1347" 
d="M700 1458q-180 0 -302 40t-122 116q0 37 29 78h346q-16 -25 -16 -50q-1 -51 65 -51t66 51q0 25 -16 50h346q29 -41 28 -78q0 -76 -122 -116t-302 -40zM1276 0h-1194v1364h1182v-373h-629v-147h493v-307h-493v-164h641v-373z" />
    <glyph glyph-name="ebreve" unicode="&#x115;" horiz-adv-x="1179" 
d="M1014 1239q0 -90 -98 -148q-98 -59 -281 -59t-281 58t-98 149q0 61 45 125h264q-20 -37 -20 -67q-1 -30 23 -50t67 -20t67 20t23 50q0 30 -20 67h264q45 -63 45 -125zM694 610q0 111 -60 111t-65 -164h121q4 41 4 53zM651 256q55 0 56 61q0 16 -7 35l420 -39q8 -33 8 -67
q0 -266 -532 -266q-559 0 -559 497q0 217 146 357t433 141q205 0 355 -89q76 -46 120 -130q69 -132 29 -334h-551q7 -102 27 -134t55 -32z" />
    <glyph glyph-name="Edotaccent" unicode="&#x116;" horiz-adv-x="1347" 
d="M963 1468h-533v322h533v-322zM1276 0h-1194v1364h1182v-373h-629v-147h493v-307h-493v-164h641v-373z" />
    <glyph glyph-name="edotaccent" unicode="&#x117;" horiz-adv-x="1179" 
d="M881 1042h-533v322h533v-322zM694 610q0 111 -60 111t-65 -164h121q4 41 4 53zM651 256q55 0 56 61q0 16 -7 35l420 -39q8 -33 8 -67q0 -266 -532 -266q-559 0 -559 497q0 217 146 357t433 141q205 0 355 -89q76 -46 120 -130q69 -132 29 -334h-551q7 -102 27 -134
t55 -32z" />
    <glyph glyph-name="Eogonek" unicode="&#x118;" horiz-adv-x="1347" 
d="M1059 -356q-248 0 -248 147q0 60 66 100q66 39 137 58q134 37 221 51h-1153v1364h1182v-373h-629v-147h493v-307h-493v-164h641v-373q-147 -82 -148 -180q0 -63 70 -64q31 0 64 8l14 -79q-92 -41 -217 -41z" />
    <glyph glyph-name="eogonek" unicode="&#x119;" horiz-adv-x="1179" 
d="M694 610q0 111 -60 111t-65 -164h121q4 41 4 53zM684 -356q-248 0 -248 127q0 133 416 229q-127 -20 -256 -20q-559 0 -559 497q0 217 146 357t433 141q205 0 355 -89q76 -46 120 -130t44 -174t-15 -160h-551q7 -102 27 -134t55 -32q55 0 56 61q0 16 -7 35l420 -39
q8 -33 8 -67q0 -123 -147 -209q-109 -61 -168 -122q-59 -62 -59 -101q0 -57 69 -58q31 0 64 8l14 -79q-92 -41 -217 -41z" />
    <glyph glyph-name="Ecaron" unicode="&#x11a;" horiz-adv-x="1347" 
d="M1096 1694l-152 -240h-506l-147 240h350l51 -135l53 135h351zM1276 0h-1194v1364h1182v-373h-629v-147h493v-307h-493v-164h641v-373z" />
    <glyph glyph-name="ecaron" unicode="&#x11b;" horiz-adv-x="1179" 
d="M1004 1364l-152 -322h-465l-147 322h329l52 -184l53 184h330zM694 610q0 111 -60 111t-65 -164h121q4 41 4 53zM651 256q55 0 56 61q0 16 -7 35l420 -39q8 -33 8 -67q0 -266 -532 -266q-559 0 -559 497q0 217 146 357t433 141q205 0 355 -89q76 -46 120 -130
q69 -132 29 -334h-551q7 -102 27 -134t55 -32z" />
    <glyph glyph-name="Gcircumflex" unicode="&#x11c;" horiz-adv-x="1595" 
d="M1073 1694l152 -240h-351l-53 135l-51 -135h-350l147 240h506zM887 487v213h637v-700h-293l-47 211q-41 -94 -159 -165t-265 -71q-346 -1 -534 191t-189 514q0 322 217 515q217 194 602 194q272 1 446 -131t183 -386l-416 -86q-27 209 -201 209q-111 0 -171 -86
q-60 -85 -60 -231t54 -245t169 -99q147 0 180 153h-153z" />
    <glyph glyph-name="gcircumflex" unicode="&#x11d;" horiz-adv-x="1284" 
d="M678 652q0 114 -70 114t-70 -114t68 -113q72 -1 72 113zM682 -37h-178q-80 0 -80 -45q0 -51 179 -51t179 48t-100 48zM842 1364l151 -322h-329l-54 185l-51 -185h-330l148 322h465zM78 651q0 147 139 235t405 87q266 0 418 -131q0 78 36 137t100 59q133 0 153 -174
l-106 -114q-31 49 -64 49t-59 -27q39 -61 39 -121q-1 -145 -141 -232t-392 -87q-131 0 -225 20q-16 -12 -16 -35q0 -35 59 -34h276q248 0 392 -80t143 -243q0 -163 -160 -240t-495 -76q-610 0 -611 176q1 68 101 106t219 43q-260 29 -260 203q0 80 77 131q78 51 187 76
q-215 84 -215 272z" />
    <glyph glyph-name="Gbreve" unicode="&#x11e;" horiz-adv-x="1595" 
d="M1262 1614q0 -76 -122 -116t-302 -40t-302 40t-122 116q0 37 28 78h346q-16 -25 -16 -50q0 -51 66 -51t65 51q0 25 -16 50h346q29 -41 29 -78zM887 487v213h637v-700h-293l-47 211q-41 -94 -159 -165t-265 -71q-346 -1 -534 191t-189 514q0 322 217 515q217 194 602 194
q272 1 446 -131t183 -386l-416 -86q-27 209 -201 209q-111 0 -171 -86q-60 -85 -60 -231t54 -245t169 -99q147 0 180 153h-153z" />
    <glyph glyph-name="gbreve" unicode="&#x11f;" horiz-adv-x="1284" 
d="M1004 1364l-152 -322h-465l-147 322h329l52 -184l53 184h330zM678 652q0 114 -70 114t-70 -114t68 -113q72 -1 72 113zM682 -37h-178q-80 0 -80 -45q0 -51 179 -51t179 48t-100 48zM78 651q0 147 139 235t405 87q266 0 418 -131q0 78 36 137t100 59q133 0 153 -174
l-106 -114q-31 49 -64 49t-59 -27q39 -61 39 -121q-1 -145 -141 -232t-392 -87q-131 0 -225 20q-16 -12 -16 -35q0 -35 59 -34h276q248 0 392 -80t143 -243q0 -163 -160 -240t-495 -76q-610 0 -611 176q1 68 101 106t219 43q-260 29 -260 203q0 80 77 131q78 51 187 76
q-215 84 -215 272z" />
    <glyph glyph-name="Gdotaccent" unicode="&#x120;" horiz-adv-x="1595" 
d="M1110 1468h-532v322h532v-322zM887 487v213h637v-700h-293l-47 211q-41 -94 -159 -165t-265 -71q-346 -1 -534 191t-189 514q0 322 217 515q217 194 602 194q272 1 446 -131t183 -386l-416 -86q-27 209 -201 209q-111 0 -171 -86q-60 -85 -60 -231t54 -245t169 -99
q147 0 180 153h-153z" />
    <glyph glyph-name="gdotaccent" unicode="&#x121;" horiz-adv-x="1284" 
d="M870 1042h-532v322h532v-322zM678 652q0 114 -70 114t-70 -114t68 -113q72 -1 72 113zM682 -37h-178q-80 0 -80 -45q0 -51 179 -51t179 48t-100 48zM78 651q0 147 139 235t405 87q266 0 418 -131q0 78 36 137t100 59q133 0 153 -174l-106 -114q-31 49 -64 49t-59 -27
q39 -61 39 -121q-1 -145 -141 -232t-392 -87q-131 0 -225 20q-16 -12 -16 -35q0 -35 59 -34h276q248 0 392 -80t143 -243q0 -163 -160 -240t-495 -76q-610 0 -611 176q1 68 101 106t219 43q-260 29 -260 203q0 80 77 131q78 51 187 76q-215 84 -215 272z" />
    <glyph glyph-name="Gcommaaccent" unicode="&#x122;" horiz-adv-x="1595" 
d="M1069 -123v-205q0 -272 -399 -278l-13 106q190 12 207 113h-211v264h416zM887 487v213h637v-700h-293l-47 211q-41 -94 -159 -165t-265 -71q-346 -1 -534 191t-189 514q0 322 217 515q217 194 602 194q272 1 446 -131t183 -386l-416 -86q-27 209 -201 209
q-111 0 -171 -86q-60 -85 -60 -231t54 -245t169 -99q147 0 180 153h-153z" />
    <glyph glyph-name="gcommaaccent" unicode="&#x123;" horiz-adv-x="1284" 
d="M416 1042v215q0 272 399 279l12 -106q-193 -12 -206 -105h210v-283h-415zM678 652q0 114 -70 114t-70 -114t68 -113q72 -1 72 113zM682 -37h-178q-80 0 -80 -45q0 -51 179 -51t179 48t-100 48zM78 651q0 147 139 235t405 87q266 0 418 -131q0 78 36 137t100 59
q133 0 153 -174l-106 -114q-31 49 -64 49t-59 -27q39 -61 39 -121q-1 -145 -141 -232t-392 -87q-131 0 -225 20q-16 -12 -16 -35q0 -35 59 -34h276q248 0 392 -80t143 -243q0 -163 -160 -240t-495 -76q-610 0 -611 176q1 68 101 106t219 43q-260 29 -260 203q0 80 77 131
q78 51 187 76q-215 84 -215 272z" />
    <glyph glyph-name="Hcircumflex" unicode="&#x124;" horiz-adv-x="1630" 
d="M1067 1694l152 -240h-351l-53 135l-51 -135h-350l147 240h506zM1548 0h-553v487h-360v-487h-553v1364h553v-483h360v483h553v-1364z" />
    <glyph glyph-name="hcircumflex" unicode="&#x125;" 
d="M590 1694l151 -240h-350l-53 135l-51 -135h-350l147 240h506zM1264 0h-533v518q0 70 -55 70q-33 0 -52 -34t-20 -89v-465h-532v1364h532v-684q29 123 114 209t200 86q346 0 346 -483v-492z" />
    <glyph glyph-name="Hbar" unicode="&#x126;" horiz-adv-x="1753" 
d="M696 881h361v133h-361v-133zM41 1014v213h102v137h553v-137h361v137h553v-137h102v-213h-102v-1014h-553v487h-361v-487h-553v1014h-102z" />
    <glyph glyph-name="hbar" unicode="&#x127;" horiz-adv-x="1359" 
d="M1292 0h-532v518q0 70 -55 70q-33 0 -53 -34t-19 -89v-465h-533v1014h-110v196h110v154h533v-154h201v-196h-201v-334q29 123 113 209q85 86 200 86q346 0 346 -483v-492z" />
    <glyph glyph-name="Itilde" unicode="&#x128;" horiz-adv-x="737" 
d="M737 1610q0 -72 -50 -121q-51 -49 -123 -49t-195 43t-158 43t-35 -23q0 -12 12 -28l-90 -56q-109 78 -108 180q0 66 50 111t131 45t193 -44t146 -44t33 33q-1 21 -19 37l113 53q100 -66 100 -180zM645 0h-553v1364h553v-1364z" />
    <glyph glyph-name="itilde" unicode="&#x129;" horiz-adv-x="675" 
d="M694 1231q0 -76 -49 -128t-141 -52q-53 0 -161 43q-109 43 -147 43t-38 -37q0 -23 20 -47l-110 -39q-100 70 -101 184q0 80 50 131q51 51 133 51t183 -44t128 -44q39 0 39 33q-1 23 -21 41l117 49q98 -63 98 -184zM604 0h-532v954h532v-954z" />
    <glyph glyph-name="Imacron" unicode="&#x12a;" horiz-adv-x="737" 
d="M786 1464h-833v236h833v-236zM645 0h-553v1364h553v-1364z" />
    <glyph glyph-name="imacron" unicode="&#x12b;" horiz-adv-x="675" 
d="M735 1071h-792v262h792v-262zM604 0h-532v954h532v-954z" />
    <glyph glyph-name="Ibreve" unicode="&#x12c;" horiz-adv-x="737" 
d="M793 1614q0 -76 -122 -116t-302 -40t-302 40t-122 116q0 37 28 78h346q-16 -25 -16 -50q0 -51 66 -51t65 51q0 25 -16 50h346q29 -41 29 -78zM645 0h-553v1364h553v-1364z" />
    <glyph glyph-name="ibreve" unicode="&#x12d;" horiz-adv-x="675" 
d="M717 1239q0 -90 -97 -148q-98 -59 -282 -59t-282 58t-97 149q0 61 45 125h264q-20 -37 -20 -67t24 -50t66 -20t66 20t24 50t-20 67h264q45 -63 45 -125zM604 0h-532v954h532v-954z" />
    <glyph glyph-name="Iogonek" unicode="&#x12e;" horiz-adv-x="737" 
d="M309 -356q-248 0 -248 127q0 55 42 99q72 75 229 112q59 14 110 18h-350v1364h553v-1364h-180q-86 -90 -86 -190q0 -53 63 -54q17 0 50 8l14 -79q-92 -41 -197 -41z" />
    <glyph glyph-name="iogonek" unicode="&#x12f;" horiz-adv-x="675" 
d="M604 1022h-532v342h532v-342zM299 -356q-248 0 -248 127q0 55 42 99q72 75 229 112q59 14 110 18h-360v954h532v-954h-149q-86 -90 -86 -190q0 -53 63 -54q16 0 49 8l15 -79q-92 -41 -197 -41z" />
    <glyph glyph-name="Idotaccent" unicode="&#x130;" horiz-adv-x="737" 
d="M635 1468h-533v322h533v-322zM645 0h-553v1364h553v-1364z" />
    <glyph glyph-name="dotlessi" unicode="&#x131;" horiz-adv-x="675" 
d="M604 0h-532v954h532v-954z" />
    <glyph glyph-name="IJ" unicode="&#x132;" horiz-adv-x="2064" 
d="M2003 1364v-780q0 -102 -14 -186q-15 -84 -59 -165q-140 -258 -572 -258q-295 0 -436 113q-142 112 -142 298t164 355l324 -129q-43 -78 -43 -141q0 -100 104 -100q121 0 121 153v840h553zM645 0h-553v1364h553v-1364z" />
    <glyph glyph-name="ij" unicode="&#x133;" horiz-adv-x="1351" 
d="M1280 1022h-532v342h532v-342zM748 954h532v-938q0 -188 -93 -280t-302 -92q-154 0 -289 61l6 201q23 -6 67 -6t61 24t18 72v958zM604 0h-532v954h532v-954zM604 1022h-532v342h532v-342z" />
    <glyph glyph-name="Jcircumflex" unicode="&#x134;" horiz-adv-x="1327" 
d="M1245 1694l152 -240h-350l-54 135l-51 -135h-350l147 240h506zM1266 1364v-780q0 -102 -14 -186t-59 -165q-138 -258 -573 -258q-294 0 -436 113q-141 112 -141 298t164 355l323 -129q-43 -78 -43 -141q0 -100 105 -100q121 0 121 153v840h553z" />
    <glyph glyph-name="jcircumflex" unicode="&#x135;" horiz-adv-x="675" 
d="M569 1364l152 -322h-330l-53 185l-51 -185h-330l147 322h465zM72 954h532v-938q0 -188 -93 -280t-302 -92q-154 0 -289 61l6 201q23 -6 67 -6t61 24t18 72v958z" />
    <glyph glyph-name="Kcommaaccent" unicode="&#x136;" horiz-adv-x="1615" 
d="M997 -123v-205q0 -272 -399 -278l-12 106q190 12 207 113h-211v264h415zM635 0h-553v1364h553v-487l348 487h602l-405 -555l419 -809h-651l-200 428l-113 -158v-270z" />
    <glyph glyph-name="kcommaaccent" unicode="&#x137;" horiz-adv-x="1343" 
d="M911 -123v-205q0 -272 -399 -278l-12 106q190 12 207 113h-211v264h415zM604 0h-532v1364h532v-717l217 307h496l-307 -395l327 -559h-544l-129 283l-60 -88v-195z" />
    <glyph glyph-name="kgreenlandic" unicode="&#x138;" horiz-adv-x="1343" 
d="M604 0h-532v954h532v-307l217 307h496l-307 -395l327 -559h-544l-129 283l-60 -88v-195z" />
    <glyph glyph-name="Lacute" unicode="&#x139;" horiz-adv-x="1259" 
d="M727 1708l-201 -254h-346l84 254h463zM1214 0h-1132v1364h553v-995h579v-369z" />
    <glyph glyph-name="lacute" unicode="&#x13a;" horiz-adv-x="675" 
d="M715 1708l-201 -254h-346l84 254h463zM604 0h-532v1364h532v-1364z" />
    <glyph glyph-name="Lcommaaccent" unicode="&#x13b;" horiz-adv-x="1259" 
d="M881 -123v-205q0 -272 -400 -278l-12 106q190 12 207 113h-211v264h416zM1214 0h-1132v1364h553v-995h579v-369z" />
    <glyph glyph-name="lcommaaccent" unicode="&#x13c;" horiz-adv-x="675" 
d="M539 -123v-205q0 -272 -400 -278l-12 106q190 12 207 113h-211v264h416zM604 0h-532v1364h532v-1364z" />
    <glyph glyph-name="Lcaron" unicode="&#x13d;" horiz-adv-x="1259" 
d="M1184 1364v-291q0 -272 -400 -278l-12 106q190 12 207 113h-211v350h416zM1214 0h-1132v1364h553v-995h579v-369z" />
    <glyph glyph-name="lcaron" unicode="&#x13e;" horiz-adv-x="1124" 
d="M1124 1364v-291q0 -272 -399 -278l-12 106q190 12 207 113h-211v350h415zM604 0h-532v1364h532v-1364z" />
    <glyph glyph-name="Ldot" unicode="&#x13f;" horiz-adv-x="1259" 
d="M1176 492h-447v411h447v-411zM1214 0h-1132v1364h553v-995h579v-369z" />
    <glyph glyph-name="ldot" unicode="&#x140;" horiz-adv-x="1120" 
d="M1090 262h-402v412h402v-412zM604 0h-532v1364h532v-1364z" />
    <glyph glyph-name="Lslash" unicode="&#x141;" horiz-adv-x="1374" 
d="M197 1364h553v-446l239 116l72 -147l-311 -152v-366h579v-369h-1132v467l-119 -57l-72 147l191 92v715z" />
    <glyph glyph-name="lslash" unicode="&#x142;" horiz-adv-x="901" 
d="M174 1364h533v-442l127 61l67 -139l-194 -94v-750h-533v494l-96 -45l-68 139l164 78v698z" />
    <glyph glyph-name="Nacute" unicode="&#x143;" horiz-adv-x="1650" 
d="M1206 1708l-200 -254h-347l84 254h463zM573 0h-491v1364h534l461 -616v616h492v-1364h-535l-461 614v-614z" />
    <glyph glyph-name="nacute" unicode="&#x144;" 
d="M1008 1364l-209 -309h-320l101 309h428zM1264 0h-533v518q0 70 -55 70q-72 0 -72 -142v-446h-532v954h407l80 -274q41 133 132 214t227 81q346 0 346 -483v-492z" />
    <glyph glyph-name="Ncommaaccent" unicode="&#x145;" horiz-adv-x="1650" 
d="M1042 -123v-205q0 -272 -399 -278l-12 106q190 12 207 113h-211v264h415zM573 0h-491v1364h534l461 -616v616h492v-1364h-535l-461 614v-614z" />
    <glyph glyph-name="ncommaaccent" unicode="&#x146;" 
d="M887 -123v-205q0 -272 -400 -278l-12 106q190 12 207 113h-211v264h416zM1264 0h-533v518q0 70 -55 70q-72 0 -72 -142v-446h-532v954h407l80 -274q41 133 132 214t227 81q346 0 346 -483v-492z" />
    <glyph glyph-name="Ncaron" unicode="&#x147;" horiz-adv-x="1650" 
d="M1239 1694l-152 -240h-505l-148 240h350l52 -135l53 135h350zM573 0h-491v1364h534l461 -616v616h492v-1364h-535l-461 614v-614z" />
    <glyph glyph-name="ncaron" unicode="&#x148;" 
d="M1038 1364l-151 -322h-465l-148 322h330l51 -184l54 184h329zM1264 0h-533v518q0 70 -55 70q-72 0 -72 -142v-446h-532v954h407l80 -274q41 133 132 214t227 81q346 0 346 -483v-492z" />
    <glyph glyph-name="napostrophe" unicode="&#x149;" horiz-adv-x="1755" 
d="M1688 0h-533v518q0 70 -55 70q-72 0 -72 -142v-446h-532v954h407l80 -274q41 133 132 214t226 81q346 0 347 -483v-492zM406 1364v-301q0 -166 -83 -247t-274 -97l-20 137q168 18 168 117h-181v391h390z" />
    <glyph glyph-name="Eng" unicode="&#x14a;" horiz-adv-x="1650" 
d="M573 0h-491v1364h534l461 -616v616h492v-1348q0 -188 -93 -280t-302 -92q-154 0 -289 61l6 201q23 -6 67 -6t61 23q17 24 17 73v4l-463 614v-614z" />
    <glyph glyph-name="eng" unicode="&#x14b;" 
d="M652 -100q44 0 62 23q17 24 17 73v522q0 70 -55 70q-72 0 -72 -142v-446h-532v954h407l80 -274q41 133 132 214t227 81q346 0 346 -483v-476q0 -188 -94 -280t-302 -92q-154 0 -288 61l6 201q22 -6 66 -6z" />
    <glyph glyph-name="Omacron" unicode="&#x14c;" horiz-adv-x="1654" 
d="M1245 1464h-833v236h833v-236zM1044 682q0 137 -51 225t-166 88t-165 -88t-52 -225q0 -137 52 -225t166 -88t165 88t51 225zM1618 682q0 -297 -209 -502t-582 -205t-581 205t-209 502q0 297 209 502q210 205 582 205t581 -205t209 -502z" />
    <glyph glyph-name="omacron" unicode="&#x14d;" horiz-adv-x="1265" 
d="M1030 1071h-792v262h792v-262zM709 477q-1 123 -19 162t-57 39t-57 -39t-19 -162q0 -123 18 -162q17 -39 57 -39t58 39t19 162zM1241 477q0 -229 -166 -363t-442 -134t-443 134q-166 134 -165 363q0 229 165 364q166 134 442 134q276 -1 443 -135q166 -134 166 -363z" />
    <glyph glyph-name="Obreve" unicode="&#x14e;" horiz-adv-x="1654" 
d="M827 1458q-180 0 -302 40t-122 116q0 37 29 78h346q-16 -25 -16 -50q0 -51 66 -51t65 51q0 25 -16 50h346q29 -41 28 -78q0 -76 -122 -116t-302 -40zM1044 682q0 137 -51 225t-166 88t-165 -88t-52 -225q0 -137 52 -225t166 -88t165 88t51 225zM1618 682
q0 -297 -209 -502t-582 -205t-581 205t-209 502q0 297 209 502q210 205 582 205t581 -205t209 -502z" />
    <glyph glyph-name="obreve" unicode="&#x14f;" horiz-adv-x="1265" 
d="M1012 1239q0 -90 -98 -148q-98 -59 -281 -59t-281 58t-98 149q0 61 45 125h264q-20 -37 -20 -67q-1 -30 23 -50t67 -20t67 20q45 38 2 117h265q45 -63 45 -125zM709 477q-1 123 -19 162t-57 39t-57 -39t-19 -162q0 -123 18 -162q17 -39 57 -39t58 39t19 162zM1241 477
q0 -229 -166 -363t-442 -134t-443 134q-166 134 -165 363q0 229 165 364q166 134 442 134q276 -1 443 -135q166 -134 166 -363z" />
    <glyph glyph-name="Ohungarumlaut" unicode="&#x150;" horiz-adv-x="1654" 
d="M1460 1708l-200 -254h-357l94 254h463zM903 1708l-98 -254h-408l84 254h422zM1044 682q0 137 -51 225t-166 88t-165 -88t-52 -225q0 -137 52 -225t166 -88t165 88t51 225zM1618 682q0 -297 -209 -502t-582 -205t-581 205t-209 502q0 297 209 502q210 205 582 205
t581 -205t209 -502z" />
    <glyph glyph-name="ohungarumlaut" unicode="&#x151;" horiz-adv-x="1265" 
d="M1180 1364l-105 -309h-379l72 309h412zM680 1364l-72 -309h-377l70 309h379zM709 477q-1 123 -19 162t-57 39t-57 -39t-19 -162q0 -123 18 -162q17 -39 57 -39t58 39t19 162zM1241 477q0 -229 -166 -363t-442 -134t-443 134q-166 134 -165 363q0 229 165 364
q166 134 442 134q276 -1 443 -135q166 -134 166 -363z" />
    <glyph glyph-name="OE" unicode="&#x152;" horiz-adv-x="2289" 
d="M1044 682q0 137 -51 225t-166 88t-165 -88t-52 -225q0 -137 52 -225t166 -88t165 88t51 225zM2218 0h-1161q-119 -25 -230 -25q-373 0 -581 205t-209 502q0 297 209 502t581 205q127 0 234 -25h1145v-367h-609v-176h474v-266h-474v-188h621v-367z" />
    <glyph glyph-name="oe" unicode="&#x153;" horiz-adv-x="1851" 
d="M1313 721q-72 0 -72 -137v-27h121q4 33 4 59q0 105 -53 105zM709 477q-1 123 -19 162t-57 39t-57 -39t-19 -162q0 -123 18 -162q17 -39 57 -39t58 39t19 162zM1323 256q55 0 55 59q0 18 -6 37l420 -39q6 -31 6 -59q0 -135 -122 -205q-122 -69 -351 -69t-377 139
q-118 -139 -362 -139t-403 135t-158 362q0 227 158 363q159 135 409 135q211 0 373 -148q123 147 372 148q129 0 229 -36t172 -130q71 -94 70 -240q0 -61 -16 -147h-551q7 -102 27 -134t55 -32z" />
    <glyph glyph-name="Racute" unicode="&#x154;" horiz-adv-x="1636" 
d="M1159 1708l-201 -254h-346l84 254h463zM821 750q78 0 123 32t45 83q0 52 -38 82t-109 30h-207v-227h186zM1542 995q0 -143 -101 -246t-343 -131q20 2 57 3q139 0 207 -66t108 -219q23 -88 36 -129q36 -114 120 -207h-614q-72 84 -115 241t-61 218q-25 66 -82 65h-119
v-524h-553v1364h827q319 0 476 -100t157 -269z" />
    <glyph glyph-name="racute" unicode="&#x155;" horiz-adv-x="1030" 
d="M868 1364l-209 -309h-319l100 309h428zM719 461q0 82 -41 82t-57 -66t-17 -227v-250h-532v954h407l92 -325v33q1 145 61 229t164 84t160 -77q55 -77 56 -191q0 -193 -123 -340l-178 18q8 49 8 76z" />
    <glyph glyph-name="Rcommaaccent" unicode="&#x156;" horiz-adv-x="1636" 
d="M1020 -123v-205q0 -272 -399 -278l-13 106q190 12 207 113h-211v264h416zM821 750q78 0 123 32t45 83q0 52 -38 82t-109 30h-207v-227h186zM1542 995q0 -143 -101 -246t-343 -131q20 2 57 3q139 0 207 -66t108 -219q23 -88 36 -129q36 -114 120 -207h-614
q-72 84 -115 241t-61 218q-25 66 -82 65h-119v-524h-553v1364h827q319 0 476 -100t157 -269z" />
    <glyph glyph-name="rcommaaccent" unicode="&#x157;" horiz-adv-x="1030" 
d="M545 -123v-205q0 -272 -400 -278l-12 106q190 12 207 113h-211v264h416zM719 461q0 82 -41 82t-57 -66t-17 -227v-250h-532v954h407l92 -325v33q1 145 61 229t164 84t160 -77q55 -77 56 -191q0 -193 -123 -340l-178 18q8 49 8 76z" />
    <glyph glyph-name="Rcaron" unicode="&#x158;" horiz-adv-x="1636" 
d="M1188 1694l-152 -240h-506l-147 240h350l51 -135l54 135h350zM821 750q78 0 123 32t45 83q0 52 -38 82t-109 30h-207v-227h186zM1542 995q0 -143 -101 -246t-343 -131q20 2 57 3q139 0 207 -66t108 -219q23 -88 36 -129q36 -114 120 -207h-614q-72 84 -115 241t-61 218
q-25 66 -82 65h-119v-524h-553v1364h827q319 0 476 -100t157 -269z" />
    <glyph glyph-name="rcaron" unicode="&#x159;" horiz-adv-x="1030" 
d="M924 1364l-152 -322h-465l-147 322h329l52 -184l53 184h330zM719 461q0 82 -41 82t-57 -66t-17 -227v-250h-532v954h407l92 -325v33q1 145 61 229t164 84t160 -77q55 -77 56 -191q0 -193 -123 -340l-178 18q8 49 8 76z" />
    <glyph glyph-name="Sacute" unicode="&#x15a;" horiz-adv-x="1470" 
d="M1120 1708l-200 -254h-347l84 254h463zM1425 444q0 -219 -168 -344t-503 -125q-193 -1 -381 53t-332 152l149 295q281 -158 578 -158q104 0 104 58q0 35 -48 54t-216 54q-288 57 -406 173t-118 313t164 309t504 111q178 -1 352 -47t301 -121l-125 -301q-285 133 -543 133
q-100 0 -100 -49q0 -34 42 -54t193 -51q295 -61 424 -167t129 -288z" />
    <glyph glyph-name="sacute" unicode="&#x15b;" horiz-adv-x="1052" 
d="M924 1364l-209 -309h-320l101 309h428zM1024 299q0 -135 -120 -227t-355 -92q-285 0 -516 149l108 236q57 -43 147 -78t156 -35q68 0 68 33q0 27 -49 39q-221 51 -304 125t-83 214t125 226t373 86t444 -121l-94 -233q-60 35 -146 59t-138 22q-52 0 -52 -24q0 -16 23 -27
q24 -10 118 -35q159 -42 227 -112t68 -205z" />
    <glyph glyph-name="Scircumflex" unicode="&#x15c;" horiz-adv-x="1470" 
d="M1024 1694l152 -240h-351l-53 135l-51 -135h-350l147 240h506zM1425 444q0 -219 -168 -344t-503 -125q-193 -1 -381 53t-332 152l149 295q281 -158 578 -158q104 0 104 58q0 35 -48 54t-216 54q-288 57 -406 173t-118 313t164 309t504 111q178 -1 352 -47t301 -121
l-125 -301q-285 133 -543 133q-100 0 -100 -49q0 -34 42 -54t193 -51q295 -61 424 -167t129 -288z" />
    <glyph glyph-name="scircumflex" unicode="&#x15d;" horiz-adv-x="1052" 
d="M780 1364l152 -322h-330l-53 185l-51 -185h-330l147 322h465zM1024 299q0 -135 -120 -227t-355 -92q-285 0 -516 149l108 236q57 -43 147 -78t156 -35q68 0 68 33q0 27 -49 39q-221 51 -304 125t-83 214t125 226t373 86t444 -121l-94 -233q-60 35 -146 59t-138 22
q-52 0 -52 -24q0 -16 23 -27q24 -10 118 -35q159 -42 227 -112t68 -205z" />
    <glyph glyph-name="Scedilla" unicode="&#x15e;" horiz-adv-x="1470" 
d="M1022 -201q0 -156 -258 -155q-168 0 -258 55l26 80q54 -23 110 -23t56 38t-53 38t-76 -4l72 152q-354 31 -600 200l149 295q281 -158 578 -158q104 0 104 58q0 35 -48 54t-216 54q-288 57 -406 173t-118 313t164 309t504 111q178 -1 352 -47t301 -121l-125 -301
q-285 133 -543 133q-100 0 -100 -49q0 -34 42 -54t193 -51q295 -61 424 -167t129 -288q0 -219 -168 -344t-503 -125l-49 -106q59 57 143 57t129 -34t45 -93z" />
    <glyph glyph-name="Scedilla" unicode="&#xf6c1;" horiz-adv-x="1470" 
d="M1022 -201q0 -156 -258 -155q-168 0 -258 55l26 80q54 -23 110 -23t56 38t-53 38t-76 -4l72 152q-354 31 -600 200l149 295q281 -158 578 -158q104 0 104 58q0 35 -48 54t-216 54q-288 57 -406 173t-118 313t164 309t504 111q178 -1 352 -47t301 -121l-125 -301
q-285 133 -543 133q-100 0 -100 -49q0 -34 42 -54t193 -51q295 -61 424 -167t129 -288q0 -219 -168 -344t-503 -125l-49 -106q59 57 143 57t129 -34t45 -93z" />
    <glyph glyph-name="scedilla" unicode="&#x15f;" horiz-adv-x="1052" 
d="M1024 299q0 -135 -120 -227t-355 -92l-51 -111q59 57 143 57t129 -34t45 -93q0 -156 -258 -155q-168 0 -258 55l27 80q53 -23 109 -23t57 39q0 37 -54 37t-76 -4l74 158q-219 23 -403 143l108 236q57 -43 147 -78t156 -35q68 0 68 33q0 27 -49 39q-221 51 -304 125
t-83 214t125 226t373 86t444 -121l-94 -233q-60 35 -146 59t-138 22q-52 0 -52 -24q0 -16 23 -27q24 -10 118 -35q159 -42 227 -112t68 -205z" />
    <glyph glyph-name="scedilla" unicode="&#xf6c2;" horiz-adv-x="1052" 
d="M1024 299q0 -135 -120 -227t-355 -92l-51 -111q59 57 143 57t129 -34t45 -93q0 -156 -258 -155q-168 0 -258 55l27 80q53 -23 109 -23t57 39q0 37 -54 37t-76 -4l74 158q-219 23 -403 143l108 236q57 -43 147 -78t156 -35q68 0 68 33q0 27 -49 39q-221 51 -304 125
t-83 214t125 226t373 86t444 -121l-94 -233q-60 35 -146 59t-138 22q-52 0 -52 -24q0 -16 23 -27q24 -10 118 -35q159 -42 227 -112t68 -205z" />
    <glyph glyph-name="Scaron" unicode="&#x160;" horiz-adv-x="1470" 
d="M1159 1694l-151 -240h-506l-148 240h351l51 -135l53 135h350zM1425 444q0 -219 -168 -344t-503 -125q-193 -1 -381 53t-332 152l149 295q281 -158 578 -158q104 0 104 58q0 35 -48 54t-216 54q-288 57 -406 173t-118 313t164 309t504 111q178 -1 352 -47t301 -121
l-125 -301q-285 133 -543 133q-100 0 -100 -49q0 -34 42 -54t193 -51q295 -61 424 -167t129 -288z" />
    <glyph glyph-name="scaron" unicode="&#x161;" horiz-adv-x="1052" 
d="M936 1364l-152 -322h-465l-147 322h330l51 -184l53 184h330zM1024 299q0 -135 -120 -227t-355 -92q-285 0 -516 149l108 236q57 -43 147 -78t156 -35q68 0 68 33q0 27 -49 39q-221 51 -304 125t-83 214t125 226t373 86t444 -121l-94 -233q-60 35 -146 59t-138 22
q-52 0 -52 -24q0 -16 23 -27q24 -10 118 -35q159 -42 227 -112t68 -205z" />
    <glyph glyph-name="Tcommaaccent" unicode="&#x162;" horiz-adv-x="1437" 
d="M926 -123v-205q0 -272 -400 -278l-12 106q190 12 207 113h-211v264h416zM1407 954h-412v-954h-553v954h-411v410h1376v-410z" />
    <glyph glyph-name="Tcommaaccent" unicode="&#x21a;" horiz-adv-x="1437" 
d="M926 -123v-205q0 -272 -400 -278l-12 106q190 12 207 113h-211v264h416zM1407 954h-412v-954h-553v954h-411v410h1376v-410z" />
    <glyph glyph-name="tcommaaccent" unicode="&#x163;" horiz-adv-x="868" 
d="M680 -123v-205q0 -272 -399 -278l-13 106q190 12 207 113h-211v264h416zM117 352v400h-113v202h113v275l532 35v-310h176v-202h-176v-420q-1 -49 17 -73q18 -23 66 -23t93 14l6 -201q-119 -69 -323 -69t-298 92q-93 92 -93 280z" />
    <glyph glyph-name="tcommaaccent" unicode="&#x21b;" horiz-adv-x="868" 
d="M680 -123v-205q0 -272 -399 -278l-13 106q190 12 207 113h-211v264h416zM117 352v400h-113v202h113v275l532 35v-310h176v-202h-176v-420q-1 -49 17 -73q18 -23 66 -23t93 14l6 -201q-119 -69 -323 -69t-298 92q-93 92 -93 280z" />
    <glyph glyph-name="Tcaron" unicode="&#x164;" horiz-adv-x="1437" 
d="M1122 1694l-151 -240h-506l-148 240h351l51 -135l53 135h350zM1407 954h-412v-954h-553v954h-411v410h1376v-410z" />
    <glyph glyph-name="tcaron" unicode="&#x165;" horiz-adv-x="1081" 
d="M1081 1636v-178q1 -154 -75 -234t-236 -104l-20 111q111 23 129 117h-142v288h344zM117 352v400h-113v202h113v275l532 35v-310h176v-202h-176v-420q-1 -49 17 -73q18 -23 66 -23t93 14l6 -201q-119 -69 -323 -69t-298 92q-93 92 -93 280z" />
    <glyph glyph-name="Tbar" unicode="&#x166;" horiz-adv-x="1437" 
d="M217 477v242h225v235h-411v410h1376v-410h-412v-235h226v-242h-226v-477h-553v477h-225z" />
    <glyph glyph-name="tbar" unicode="&#x167;" horiz-adv-x="894" 
d="M31 428v203h112v121h-112v202h112v275l533 35v-310h176v-202h-176v-121h176v-203h-176v-96q0 -49 17 -73q17 -23 65 -23t94 14l6 -201q-120 -69 -324 -69t-297 92t-94 280v76h-112z" />
    <glyph glyph-name="Utilde" unicode="&#x168;" horiz-adv-x="1523" 
d="M1157 1610q0 -72 -50 -121q-51 -49 -123 -49t-196 43t-158 43t-34 -23q0 -12 12 -28l-90 -56q-109 78 -108 180q0 66 50 111t131 45t191 -44t146 -44q35 0 35 33q-1 21 -19 37l113 53q100 -66 100 -180zM1452 549q0 -310 -203 -455q-166 -119 -461 -119q-453 0 -623 248
q-93 136 -93 326v815h553v-821q-1 -84 35 -129t124 -45t124 45t36 129v821h508v-815z" />
    <glyph glyph-name="utilde" unicode="&#x169;" 
d="M1036 1231q0 -76 -49 -128t-141 -52q-53 0 -161 43q-109 43 -147 43t-38 -37q0 -23 20 -47l-110 -39q-100 70 -101 184q0 80 50 131q51 51 133 51t182 -44t134 -44t34 33q-1 23 -21 41l117 49q98 -63 98 -184zM68 954h532v-518q0 -70 55 -69q72 0 72 141v446h533v-954
h-408l-80 274q-41 -133 -132 -214t-226 -80q-346 0 -346 483v491z" />
    <glyph glyph-name="Umacron" unicode="&#x16a;" horiz-adv-x="1523" 
d="M1212 1464h-833v236h833v-236zM1452 549q0 -310 -203 -455q-166 -119 -461 -119q-453 0 -623 248q-93 136 -93 326v815h553v-821q-1 -84 35 -129t124 -45t124 45t36 129v821h508v-815z" />
    <glyph glyph-name="umacron" unicode="&#x16b;" 
d="M1075 1071h-792v262h792v-262zM68 954h532v-518q0 -70 55 -69q72 0 72 141v446h533v-954h-408l-80 274q-41 -133 -132 -214t-226 -80q-346 0 -346 483v491z" />
    <glyph glyph-name="Ubreve" unicode="&#x16c;" horiz-adv-x="1523" 
d="M1223 1614q0 -76 -122 -116t-302 -40t-302 40t-122 116q0 37 28 78h347q-16 -25 -17 -50q0 -51 66 -51t65 51q0 25 -16 50h346q29 -41 29 -78zM1452 549q0 -310 -203 -455q-166 -119 -461 -119q-453 0 -623 248q-93 136 -93 326v815h553v-821q-1 -84 35 -129t124 -45
t124 45t36 129v821h508v-815z" />
    <glyph glyph-name="ubreve" unicode="&#x16d;" 
d="M1051 1239q1 -90 -97 -148q-98 -59 -282 -59t-282 58t-97 149q0 61 45 125h264q-20 -37 -20 -67t24 -50t66 -20t66 20q45 38 3 117h265q45 -63 45 -125zM68 954h532v-518q0 -70 55 -69q72 0 72 141v446h533v-954h-408l-80 274q-41 -133 -132 -214t-226 -80
q-346 0 -346 483v491z" />
    <glyph glyph-name="Uring" unicode="&#x16e;" horiz-adv-x="1523" 
d="M842 1618q0 29 -18 47t-44 18q-27 0 -44 -18t-17 -47t17 -47q17 -19 44 -19q26 0 44 18t18 48zM1049 1618q0 -90 -79 -143t-190 -53q-112 0 -190 52q-78 54 -78 144t79 143t189 53t190 -52q79 -54 79 -144zM1452 549q0 -310 -203 -455q-166 -119 -461 -119
q-453 0 -623 248q-93 136 -93 326v815h553v-821q-1 -84 35 -129t124 -45t124 45t36 129v821h508v-815z" />
    <glyph glyph-name="uring" unicode="&#x16f;" 
d="M733 1225q0 29 -17 47t-44 18t-44 -18q-18 -18 -18 -47t18 -47t44 -18q27 0 44 18t17 47zM940 1225q0 -89 -79 -143t-189 -54t-190 53q-79 53 -79 143t79 144q79 53 190 53q112 0 190 -53t78 -143zM68 954h532v-518q0 -70 55 -69q72 0 72 141v446h533v-954h-408l-80 274
q-41 -133 -132 -214t-226 -80q-346 0 -346 483v491z" />
    <glyph glyph-name="Uhungarumlaut" unicode="&#x170;" horiz-adv-x="1525" 
d="M1384 1708l-200 -254h-357l95 254h462zM827 1708l-98 -254h-407l84 254h421zM1452 549q0 -310 -203 -455q-166 -119 -461 -119q-453 0 -623 248q-93 136 -93 326v815h553v-821q-1 -84 35 -129t124 -45t124 45t36 129v821h508v-815z" />
    <glyph glyph-name="uhungarumlaut" unicode="&#x171;" horiz-adv-x="1341" 
d="M1210 1364l-104 -309h-379l72 309h411zM711 1364l-72 -309h-377l70 309h379zM68 954h532v-518q0 -70 55 -69q72 0 72 141v446h533v-954h-408l-80 274q-41 -133 -132 -214t-226 -80q-346 0 -346 483v491z" />
    <glyph glyph-name="Uogonek" unicode="&#x172;" horiz-adv-x="1523" 
d="M864 -356q-250 0 -250 112q0 75 132 135q115 54 209 83t102 32q-123 -31 -277 -31t-280 33q-230 60 -329 206q-99 145 -99 335v815h553v-821q-1 -84 35 -129t124 -45t124 45t36 129v821h508v-815q0 -176 -62 -288t-210 -208q-248 -162 -248 -241q0 -55 69 -56q31 0 64 8
l14 -79q-103 -41 -215 -41z" />
    <glyph glyph-name="uogonek" unicode="&#x173;" 
d="M892 -356q-258 0 -257 127q0 51 53 95q105 88 371 134h-207l-80 274q-41 -133 -132 -214t-226 -80q-346 0 -346 483v491h532v-518q0 -70 55 -69q72 0 72 141v446h533v-954h-160q-147 -82 -148 -180q0 -63 70 -64q30 0 63 8l15 -79q-92 -41 -208 -41z" />
    <glyph glyph-name="Wcircumflex" unicode="&#x174;" horiz-adv-x="2236" 
d="M1382 1694l152 -240h-350l-54 135l-51 -135h-350l148 240h505zM1405 1364l178 -637l186 637h457l-385 -1364h-510l-201 723l-225 -723h-493l-402 1364h563l168 -637l177 637h487z" />
    <glyph glyph-name="wcircumflex" unicode="&#x175;" horiz-adv-x="1814" 
d="M1151 1364l152 -322h-330l-53 185l-52 -185h-329l147 322h465zM791 0h-484l-317 954h493l95 -524l135 524h426l125 -524l84 524h483l-318 -954h-462l-131 410z" />
    <glyph glyph-name="Ycircumflex" unicode="&#x176;" horiz-adv-x="1519" 
d="M1042 1694l152 -240h-350l-53 135l-52 -135h-350l148 240h505zM1034 0h-553v481l-471 883h580l201 -446l206 446h512l-475 -885v-479z" />
    <glyph glyph-name="ycircumflex" unicode="&#x177;" horiz-adv-x="1200" 
d="M866 1364l152 -322h-330l-53 185l-51 -185h-330l147 322h465zM420 -356q-130 0 -260 53l8 199q41 -10 88 -11q102 0 127 82l-393 987h491l148 -555l153 555h439l-324 -934q-37 -106 -70 -168t-84 -114t-123 -74q-70 -20 -200 -20z" />
    <glyph glyph-name="Ydieresis" unicode="&#x178;" horiz-adv-x="1519" 
d="M737 1464h-385v265h385v-265zM1233 1464h-393v265h393v-265zM1034 0h-553v481l-471 883h580l201 -446l206 446h512l-475 -885v-479z" />
    <glyph glyph-name="Zacute" unicode="&#x179;" horiz-adv-x="1456" 
d="M1106 1708l-201 -254h-346l84 254h463zM1391 0h-1319v250l600 770h-578v344h1272v-268l-571 -748h596v-348z" />
    <glyph glyph-name="zacute" unicode="&#x17a;" horiz-adv-x="1118" 
d="M934 1364l-209 -309h-319l100 309h428zM63 668v286h992v-286l-316 -381h326v-287h-1004v203l422 465h-420z" />
    <glyph glyph-name="Zdotaccent" unicode="&#x17b;" horiz-adv-x="1456" 
d="M1020 1468h-533v322h533v-322zM1391 0h-1319v250l600 770h-578v344h1272v-268l-571 -748h596v-348z" />
    <glyph glyph-name="zdotaccent" unicode="&#x17c;" horiz-adv-x="1118" 
d="M840 1042h-533v322h533v-322zM63 668v286h992v-286l-316 -381h326v-287h-1004v203l422 465h-420z" />
    <glyph glyph-name="Zcaron" unicode="&#x17d;" horiz-adv-x="1456" 
d="M1157 1694l-151 -240h-506l-148 240h350l52 -135l53 135h350zM1391 0h-1319v250l600 770h-578v344h1272v-268l-571 -748h596v-348z" />
    <glyph glyph-name="zcaron" unicode="&#x17e;" horiz-adv-x="1118" 
d="M961 1364l-152 -322h-465l-147 322h329l52 -184l53 184h330zM63 668v286h992v-286l-316 -381h326v-287h-1004v203l422 465h-420z" />
    <glyph glyph-name="florin" unicode="&#x192;" horiz-adv-x="1073" 
d="M342 -356q-195 0 -309 75l30 187q35 -6 73 -6t54 22t23 74l55 637h-127l17 203h129l16 182q15 188 117 280t298 92t324 -81l-45 -187q-101 30 -136 -10q-19 -23 -23 -74l-19 -202h152l-17 -203h-153l-53 -617q-16 -190 -114 -281t-292 -91z" />
    <glyph glyph-name="Aringacute" unicode="&#x1fa;" horiz-adv-x="1677" 
d="M1137 1978l-109 -198h-346l66 198h389zM901 1516q0 72 -63 71q-64 1 -64 -71t64 -72t63 72zM778 954l-151 -473h303zM1116 1519q0 -91 -84 -155h129l506 -1364h-584l-61 190h-490l-59 -190h-453l504 1364h119q-84 62 -84 154t83 151t196 59q114 0 196 -58q82 -60 82 -151
z" />
    <glyph glyph-name="aringacute" unicode="&#x1fb;" horiz-adv-x="1312" 
d="M928 1690l-92 -220h-320l72 220h340zM717 1225q1 29 -17 47t-45 18t-44 -18t-17 -47t17 -47t44 -18t45 18t17 47zM924 1225q0 -89 -79 -143t-190 -54t-189 53t-79 143q0 90 79 144q80 53 190 53t189 -53t79 -143zM655 276v62q-117 -14 -116 -80q0 -53 57 -53q59 -1 59 71
zM326 -20q-131 0 -205 70t-74 192q0 252 430 252q74 0 176 -11v183q0 55 -43 55t-43 -55q0 -27 15 -64l-461 -98q-43 82 -43 158q0 141 146 227t418 86t408 -94t136 -299v-297q0 -63 43 -64q36 1 59 15v-173q-41 -41 -127 -63t-175 -20q-89 0 -166 49t-107 135
q-51 -94 -153 -139t-234 -45z" />
    <glyph glyph-name="AEacute" unicode="&#x1fc;" horiz-adv-x="2187" 
d="M1264 1708l-201 -254h-346l84 254h463zM778 954l-151 -473h303zM2103 1364v-367h-807l66 -176h606v-266h-508l70 -188h586v-367h-1033l-61 190h-490l-59 -190h-453l504 1364h1579z" />
    <glyph glyph-name="aeacute" unicode="&#x1fd;" horiz-adv-x="1794" 
d="M1161 1364l-209 -309h-319l100 309h428zM539 258q0 -54 60 -54t83 72q-14 33 -16 64q-127 -16 -127 -82zM1251 721q-66 0 -65 -154v-10h121q4 41 4 53q-1 111 -60 111zM1268 256q55 0 55 61q0 18 -6 35l420 -39q8 -33 8 -71q0 -262 -533 -262q-147 0 -268 40t-186 117
q-100 -92 -202 -125q-102 -32 -231 -32q-130 0 -204 70t-74 192q0 246 420 245q80 0 186 -10q-1 59 11 105t12 73q0 66 -53 66t-54 -59q0 -27 13 -60l-461 -98q-41 94 -41 176q0 135 120 215t369 80q213 0 305 -135q104 135 359 135q204 0 354 -89q76 -46 120 -128t44 -173
t-14 -163h-551q6 -102 26 -134t56 -32z" />
    <glyph glyph-name="Oslashacute" unicode="&#x1fe;" horiz-adv-x="1654" 
d="M1198 1708l-201 -254h-346l84 254h463zM1044 682q0 51 -10 109l-375 -330q53 -92 168 -92t166 88t51 225zM610 682q0 -53 11 -111l374 332q-57 92 -170 92t-164 -88t-51 -225zM37 692q0 286 209 492q209 205 581 205q322 0 533 -164l186 164l72 -82l-176 -156
q176 -193 176 -479t-209 -492q-209 -205 -582 -205q-324 0 -532 162l-184 -162l-74 82l176 156q-176 193 -176 479z" />
    <glyph glyph-name="oslashacute" unicode="&#x1ff;" horiz-adv-x="1265" 
d="M991 1364l-209 -309h-319l100 309h428zM557 477v-12l145 119q-6 57 -23 75q-17 19 -51 19t-52 -39t-19 -162zM709 477v12l-148 -116q5 -57 23 -77t53 -20t53 39t19 162zM1241 465q0 -217 -166 -351t-434 -134t-426 114l-143 -114l-47 59l131 104q-131 131 -131 347
t165 351q166 134 432 134t427 -115l143 115l47 -60l-131 -104q133 -129 133 -346z" />
    <glyph glyph-name="Scommaaccent" unicode="&#x218;" horiz-adv-x="1470" 
d="M979 -123v-205q0 -272 -399 -278l-13 106q190 12 207 113h-211v264h416zM1425 444q0 -219 -168 -344t-503 -125q-193 -1 -381 53t-332 152l149 295q281 -158 578 -158q104 0 104 58q0 35 -48 54t-216 54q-288 57 -406 173t-118 313t164 309t504 111q178 -1 352 -47
t301 -121l-125 -301q-285 133 -543 133q-100 0 -100 -49q0 -34 42 -54t193 -51q295 -61 424 -167t129 -288z" />
    <glyph glyph-name="scommaaccent" unicode="&#x219;" horiz-adv-x="1052" 
d="M760 -123v-205q0 -272 -400 -278l-12 106q190 12 207 113h-211v264h416zM1024 299q0 -135 -120 -227t-355 -92q-285 0 -516 149l108 236q57 -43 147 -78t156 -35q68 0 68 33q0 27 -49 39q-221 51 -304 125t-83 214t125 226t373 86t444 -121l-94 -233q-60 35 -146 59
t-138 22q-52 0 -52 -24q0 -16 23 -27q24 -10 118 -35q159 -42 227 -112t68 -205z" />
    <glyph glyph-name="circumflex" unicode="&#x2c6;" horiz-adv-x="907" 
d="M684 1364l152 -322h-330l-53 185l-52 -185h-329l147 322h465z" />
    <glyph glyph-name="caron" unicode="&#x2c7;" horiz-adv-x="907" 
d="M836 1364l-152 -322h-465l-147 322h329l52 -184l53 184h330z" />
    <glyph glyph-name="breve" unicode="&#x2d8;" horiz-adv-x="901" 
d="M829 1239q0 -90 -97 -148q-97 -59 -281 -59q-183 0 -281 58t-98 149q0 61 45 125h264q-43 -79 3 -117q24 -20 67 -20t67 20q45 38 2 117h264q45 -63 45 -125z" />
    <glyph glyph-name="dotaccent" unicode="&#x2d9;" horiz-adv-x="675" 
d="M604 1042h-532v322h532v-322z" />
    <glyph glyph-name="ring" unicode="&#x2da;" horiz-adv-x="679" 
d="M401 1225q0 29 -17 47t-44 18t-44 -18t-17 -47t17 -47t44 -18t44 18t17 47zM608 1225q0 -89 -79 -143t-189 -54t-190 53q-78 53 -78 143t79 144q79 53 189 53t190 -53q78 -53 78 -143z" />
    <glyph glyph-name="ogonek" unicode="&#x2db;" horiz-adv-x="608" 
d="M309 -356q-248 0 -248 147q0 63 80 115q147 94 344 94h41q-147 -82 -147 -180q0 -63 70 -64q30 0 63 8l14 -79q-92 -41 -217 -41z" />
    <glyph glyph-name="tilde" unicode="&#x2dc;" horiz-adv-x="874" 
d="M610 1051q-52 0 -160 43t-147 43t-39 -37q0 -23 21 -47l-111 -39q-100 70 -100 184q0 80 50 131t131 51t183 -44t129 -44q39 0 39 33q0 23 -20 41l116 49q98 -63 99 -184q0 -76 -49 -128t-142 -52z" />
    <glyph glyph-name="hungarumlaut" unicode="&#x2dd;" horiz-adv-x="1097" 
d="M1030 1364l-104 -309h-379l71 309h412zM530 1364l-71 -309h-377l70 309h378z" />
    <glyph glyph-name="uni0326" unicode="&#x326;" horiz-adv-x="729" 
d="M504 -123v-205q0 -272 -400 -278l-12 106q190 12 207 113h-211v264h416z" />
    <glyph glyph-name="Omega" unicode="&#x3a9;" horiz-adv-x="1716" 
d="M1606 0h-672v268q63 76 97 164t39 140t5 130q0 293 -217 293t-217 -293q0 -78 5 -130t39 -140t97 -164v-268h-671v313l450 -174q-260 129 -377 280t-116 335q0 290 204 462t586 172q381 0 586 -172q205 -174 205 -462q0 -184 -117 -335t-377 -280l451 174v-313z" />
    <glyph glyph-name="pi" unicode="&#x3c0;" horiz-adv-x="1511" 
d="M1468 739h-163v-407q0 -49 17 -73q32 -45 146 -9l7 -201q-117 -69 -311 -69t-282 92q-89 92 -89 280v387h-117v-739h-512v739h-144v215h1448v-215z" />
    <glyph glyph-name="Wgrave" unicode="&#x1e80;" horiz-adv-x="2236" 
d="M973 1454l-174 254h432l88 -254h-346zM1405 1364l178 -637l186 637h457l-385 -1364h-510l-201 723l-225 -723h-493l-402 1364h563l168 -637l177 637h487z" />
    <glyph glyph-name="wgrave" unicode="&#x1e81;" horiz-adv-x="1814" 
d="M752 1055l-209 309h428l100 -309h-319zM791 0h-484l-317 954h493l95 -524l135 524h426l125 -524l84 524h483l-318 -954h-462l-131 410z" />
    <glyph glyph-name="Wacute" unicode="&#x1e82;" horiz-adv-x="2236" 
d="M1538 1708l-201 -254h-346l84 254h463zM1405 1364l178 -637l186 637h457l-385 -1364h-510l-201 723l-225 -723h-493l-402 1364h563l168 -637l177 637h487z" />
    <glyph glyph-name="wacute" unicode="&#x1e83;" horiz-adv-x="1814" 
d="M1313 1364l-209 -309h-320l101 309h428zM791 0h-484l-317 954h493l95 -524l135 524h426l125 -524l84 524h483l-318 -954h-462l-131 410z" />
    <glyph glyph-name="Wdieresis" unicode="&#x1e84;" horiz-adv-x="2236" 
d="M1075 1464h-385v265h385v-265zM1571 1464h-393v265h393v-265zM1405 1364l178 -637l186 637h457l-385 -1364h-510l-201 723l-225 -723h-493l-402 1364h563l168 -637l177 637h487z" />
    <glyph glyph-name="wdieresis" unicode="&#x1e85;" horiz-adv-x="1814" 
d="M864 1061h-356v303h356v-303zM1327 1061h-364v303h364v-303zM791 0h-484l-317 954h493l95 -524l135 524h426l125 -524l84 524h483l-318 -954h-462l-131 410z" />
    <glyph glyph-name="Ygrave" unicode="&#x1ef2;" horiz-adv-x="1519" 
d="M606 1454l-174 254h432l88 -254h-346zM1034 0h-553v481l-471 883h580l201 -446l206 446h512l-475 -885v-479z" />
    <glyph glyph-name="ygrave" unicode="&#x1ef3;" horiz-adv-x="1200" 
d="M465 1055l-209 309h428l100 -309h-319zM420 -356q-130 0 -260 53l8 199q41 -10 88 -11q102 0 127 82l-393 987h491l148 -555l153 555h439l-324 -934q-37 -106 -70 -168t-84 -114t-123 -74q-70 -20 -200 -20z" />
    <glyph glyph-name="endash" unicode="&#x2013;" horiz-adv-x="1300" 
d="M1198 373h-1096v346h1096v-346z" />
    <glyph glyph-name="emdash" unicode="&#x2014;" horiz-adv-x="1771" 
d="M1669 373h-1567v346h1567v-346z" />
    <glyph glyph-name="quoteleft" unicode="&#x2018;" horiz-adv-x="614" 
d="M328 1069h204v-391h-471l2 321q0 377 437 385l20 -137q-106 -12 -149 -55t-43 -123z" />
    <glyph glyph-name="quoteright" unicode="&#x2019;" horiz-adv-x="614" 
d="M287 973h-205v391h471l-2 -322q0 -377 -436 -385l-21 138q106 12 150 55q43 43 43 123z" />
    <glyph glyph-name="quotesinglbase" unicode="&#x201a;" horiz-adv-x="610" 
d="M539 432v-379q0 -195 -120 -298t-327 -103l-16 131q199 20 198 217h-202v432h467z" />
    <glyph glyph-name="quotedblleft" unicode="&#x201c;" horiz-adv-x="1200" 
d="M328 1069h204v-391h-471l2 321q0 377 437 385l20 -137q-106 -12 -149 -55t-43 -123zM913 1069h205v-391h-471l2 321q0 377 436 385l21 -137q-106 -12 -150 -55t-43 -123z" />
    <glyph glyph-name="quotedblright" unicode="&#x201d;" horiz-adv-x="1200" 
d="M872 973h-204v391h471l-2 -322q0 -377 -437 -385l-20 138q106 12 149 55t43 123zM287 973h-205v391h471l-2 -322q0 -377 -436 -385l-21 138q106 12 150 55q43 43 43 123z" />
    <glyph glyph-name="quotedblbase" unicode="&#x201e;" horiz-adv-x="1200" 
d="M1124 432v-379q0 -195 -120 -298t-326 -103l-16 131q199 20 198 217h-203v432h467zM539 432v-379q0 -195 -120 -298t-327 -103l-16 131q199 20 198 217h-202v432h467z" />
    <glyph glyph-name="dagger" unicode="&#x2020;" horiz-adv-x="972" 
d="M242 549l217 369l-377 -183v443l377 -183l-217 369h489l-215 -369l375 183v-443l-375 183l215 -369l-211 -836h-67z" />
    <glyph glyph-name="daggerdbl" unicode="&#x2021;" horiz-adv-x="972" 
d="M891 735l-375 183l215 -369v-21l-215 -368l375 182v-442l-375 182l215 -369h-489l217 369l-377 -182v442l377 -182l-217 368v21l217 369l-377 -183v443l377 -183l-217 369h489l-215 -369l375 183v-443z" />
    <glyph glyph-name="bullet" unicode="&#x2022;" horiz-adv-x="856" 
d="M61 575q0 152 108 260q107 107 259 107t260 -108t107 -259q0 -151 -108 -259q-107 -108 -259 -108t-260 108q-108 107 -107 259z" />
    <glyph glyph-name="ellipsis" unicode="&#x2026;" horiz-adv-x="1830" 
d="M1759 0h-467v432h467v-432zM1149 0h-467v432h467v-432zM539 0h-467v432h467v-432z" />
    <glyph glyph-name="perthousand" unicode="&#x2030;" horiz-adv-x="2783" 
d="M2413 354q-1 88 -13 124t-49 36t-49 -36t-12 -124t12 -123t49 -35t49 36q12 34 13 122zM2753 354q1 -172 -105 -273t-296 -101t-297 101q-105 101 -105 273t108 275q109 102 293 102q184 -1 293 -103t109 -274zM494 967q0 88 -12 124q-12 35 -50 35q-37 0 -49 -36
t-12 -123q0 -88 12 -123t49 -35q38 0 50 35t12 123zM834 967q0 -171 -106 -273t-296 -102t-296 101q-105 101 -105 273t108 275q109 102 293 102t293 -102t109 -274zM1536 354q0 88 -12 124t-49 36t-49 -36t-13 -124q0 -88 12 -123q11 -35 49 -35t50 36q12 34 12 122z
M1421 1323l-680 -1323h-252l680 1323h252zM1876 354q0 -172 -106 -273t-295 -101q-190 0 -296 101q-105 101 -106 273q0 172 109 274t293 103q185 -1 293 -103t108 -274z" />
    <glyph glyph-name="guilsinglleft" unicode="&#x2039;" horiz-adv-x="815" 
d="M723 602l-326 -125l326 -125v-309l-655 297v274l655 297v-309z" />
    <glyph glyph-name="guilsinglright" unicode="&#x203a;" horiz-adv-x="815" 
d="M418 477l-326 125v309l656 -297v-274l-656 -297v309z" />
    <glyph glyph-name="fraction" unicode="&#x2044;" horiz-adv-x="989" 
d="M1020 1364l-809 -1364h-242l811 1364h240z" />
    <glyph glyph-name="Euro" unicode="&#x20ac;" horiz-adv-x="1624" 
d="M991 508h-221q47 -178 201 -178q170 0 213 248l375 -103q-23 -213 -189 -354t-448 -141t-463 143q-180 143 -226 385h-182v108h170v91h-170v108h185q45 236 224 382q178 146 464 146t444 -145t162 -375l-377 -75q0 102 -51 174t-135 71q-158 0 -201 -178h225v-108h-241
v-45q0 -31 2 -46h239v-108z" />
    <glyph glyph-name="trademark" unicode="&#x2122;" horiz-adv-x="1335" 
d="M545 1202h-142v-321h-208v321h-138v162h488v-162zM1274 881h-215v215l-70 -215h-137l-72 215v-215h-166v483h242l66 -211l67 211h285v-483z" />
    <glyph glyph-name="partialdiff" unicode="&#x2202;" horiz-adv-x="1441" 
d="M700 557q-50 0 -84 -44t-34 -130t77 -86q53 0 86 52t33 112q0 96 -78 96zM612 -20q-272 0 -415 116t-144 293q0 176 114 296t339 120q125 -1 207 -63t102 -173q16 104 16 181q0 324 -282 323q-123 0 -227 -76l-125 215q199 176 489 177q182 -1 320 -53t219 -142
q161 -181 159 -430q0 -325 -195 -549q-95 -109 -243 -172t-334 -63z" />
    <glyph glyph-name="Delta" unicode="&#x2206;" horiz-adv-x="1492" 
d="M745 1006l-145 -701h291zM1049 1364l393 -1364h-1391l393 1364h605z" />
    <glyph glyph-name="product" unicode="&#x220f;" horiz-adv-x="1619" 
d="M1395 -205h-512v1338h-146v-1338h-512v1338h-184v231h1538v-231h-184v-1338z" />
    <glyph glyph-name="summation" unicode="&#x2211;" horiz-adv-x="1185" 
d="M82 -205v232l389 563l-399 543v231h1034v-231h-459l397 -537l-399 -569h496v-232h-1059z" />
    <glyph glyph-name="minus" unicode="&#x2212;" horiz-adv-x="960" 
d="M868 373h-776v346h776v-346z" />
    <glyph glyph-name="radical" unicode="&#x221a;" horiz-adv-x="1503" 
d="M905 1475h541l-393 -1475h-660l-332 717l402 170l219 -502z" />
    <glyph glyph-name="infinity" unicode="&#x221e;" horiz-adv-x="1871" 
d="M506 565q0 -45 38 -73t107 -27q121 0 195 100q-74 100 -195 101q-69 0 -107 -28t-38 -73zM1366 565q0 45 -38 73t-107 28q-121 0 -195 -101q74 -100 195 -100q69 -1 107 27t38 73zM41 565q0 193 119 307t325 113q244 0 439 -252q78 119 202 186t260 66q207 0 326 -114
q119 -115 119 -307t-119 -306t-326 -113q-132 0 -252 72t-208 186q-72 -117 -190 -187t-251 -71q-207 -1 -325 113t-119 307z" />
    <glyph glyph-name="integral" unicode="&#x222b;" horiz-adv-x="841" 
d="M649 1032v-1016q0 -188 -93 -280q-92 -92 -282 -92t-319 69l6 199q41 -12 81 -12t57 24t18 72v1016q0 188 93 280q94 92 288 92t313 -69l-6 -201q-45 14 -83 14q-73 0 -73 -96z" />
    <glyph glyph-name="approxequal" unicode="&#x2248;" horiz-adv-x="1265" 
d="M391 172q-66 0 -160 -66l-120 160q37 90 114 148q78 57 161 57q83 -1 125 -19q110 -48 161 -73t79 -35t74 -10q137 0 236 112l133 -145q-39 -106 -131 -186q-93 -80 -235 -80t-254 61t-137 69q-24 7 -46 7zM372 864q82 0 122 -12t139 -59q98 -47 170 -48q115 0 182 119
l168 -172q-39 -98 -122 -181t-195 -83q-77 0 -113 18q-37 18 -79 38t-62 30q-136 64 -192 64t-96 -22t-93 -67l-119 168q47 87 128 147q80 60 162 60z" />
    <glyph glyph-name="notequal" unicode="&#x2260;" horiz-adv-x="999" 
d="M82 109v266h301l115 160h-416v266h608l94 131l62 -45l-64 -86h136v-266h-326l-115 -160h441v-266h-633l-70 -99l-61 45l36 54h-108z" />
    <glyph glyph-name="lessequal" unicode="&#x2264;" horiz-adv-x="1071" 
d="M989 0h-907v250h907v-250zM928 688l-566 -57l566 -58v-286l-809 192v303l809 193v-287z" />
    <glyph glyph-name="greaterequal" unicode="&#x2265;" horiz-adv-x="1071" 
d="M989 0h-907v250h907v-250zM709 631l-566 57v287l809 -193v-303l-809 -192v286z" />
    <glyph glyph-name="lozenge" unicode="&#x25ca;" horiz-adv-x="1378" 
d="M848 684l-160 369l-158 -369l158 -373zM965 1364l368 -680l-368 -684h-553l-367 684l367 680h553z" />
    <glyph glyph-name="apple" unicode="&#xf8ff;" horiz-adv-x="1579" 
d="M1487 682h-682v-682h-682v1364h1364v-682z" />
    <glyph glyph-name="Acute" horiz-adv-x="679" 
d="M649 1708l-200 -254h-347l84 254h463z" />
    <glyph glyph-name="Breve" horiz-adv-x="933" 
d="M891 1614q0 -76 -122 -116t-302 -40t-302 40t-122 116q0 37 29 78h346q-16 -25 -17 -50q0 -51 66 -51t65 51q0 25 -16 50h346q29 -41 29 -78z" />
    <glyph glyph-name="Caron" horiz-adv-x="886" 
d="M846 1694l-152 -240h-506l-147 240h350l51 -135l54 135h350z" />
    <glyph glyph-name="Circumflex" horiz-adv-x="907" 
d="M705 1694l151 -240h-350l-53 135l-52 -135h-350l148 240h506z" />
    <glyph glyph-name="Dieresis" horiz-adv-x="983" 
d="M436 1464h-385v265h385v-265zM932 1464h-393v265h393v-265z" />
    <glyph glyph-name="Dotaccent" horiz-adv-x="634" 
d="M584 1468h-533v322h533v-322z" />
    <glyph glyph-name="Grave" horiz-adv-x="643" 
d="M215 1454l-174 254h432l88 -254h-346z" />
    <glyph glyph-name="Hungarumlaut" horiz-adv-x="1155" 
d="M1145 1708l-201 -254h-356l94 254h463zM588 1708l-99 -254h-407l84 254h422z" />
    <glyph glyph-name="Macron" horiz-adv-x="956" 
d="M895 1464h-834v236h834v-236z" />
    <glyph glyph-name="Ring" horiz-adv-x="659" 
d="M391 1618q0 29 -17 47t-44 18t-44 -18q-18 -18 -18 -47t18 -47q18 -19 44 -19q27 0 44 18t17 48zM598 1618q0 -90 -79 -143t-189 -53t-190 52q-79 54 -79 144t79 143t190 53q112 0 190 -52q78 -54 78 -144z" />
    <glyph glyph-name="Tilde" horiz-adv-x="851" 
d="M626 1440q-73 0 -196 43t-158 43t-34 -23q0 -12 12 -28l-90 -56q-109 78 -109 180q0 66 50 111q51 45 131 45t192 -44t146 -44t34 33q0 21 -18 37l112 53q100 -66 101 -180q0 -72 -50 -121t-123 -49z" />
    <glyph glyph-name="ornm01.ornm" horiz-adv-x="1662" 
d="M72 477l575 578l246 -301l-295 -183l932 129v-446l-932 129l295 -182l-246 -301z" />
    <glyph glyph-name="ornm02.ornm" horiz-adv-x="1662" 
d="M1016 1055l575 -578l-575 -577l-246 301l295 182l-932 -129v446l932 -129l-295 183z" />
    <glyph glyph-name="ornm03.ornm" horiz-adv-x="1943" 
d="M756 -25l-684 707l684 707l325 -369l-413 -262l1142 225v-602l-1142 225l413 -262z" />
    <glyph glyph-name="ornm04.ornm" horiz-adv-x="1943" 
d="M1872 682l-684 -707l-326 369l414 262l-1143 -225v602l1143 -225l-414 262l326 369z" />
    </font>
</defs>
</svg>
